<?xml version="1.0" encoding="utf-8"?>
<!-- Generator: Adobe Illustrator 25.0.0, SVG Export Plug-In . SVG Version: 6.00 Build 0)  -->
<svg version="1.1" id="Layer_1" xmlns="http://www.w3.org/2000/svg" xmlns:xlink="http://www.w3.org/1999/xlink" x="0px" y="0px"
	 viewBox="0 0 870.1 1000" style="enable-background:new 0 0 870.1 1000;" xml:space="preserve">
<style type="text/css">
	.st0{fill:#28679A;stroke:#000000;stroke-width:0.5;stroke-miterlimit:10;}
	.st1{fill:#12121D;}
	.st2{stroke:#000000;stroke-width:5;stroke-miterlimit:10;}
	.st3{fill:#E8E61B;stroke:#000000;stroke-width:5;stroke-miterlimit:10;}
	.st4{fill:#346DB6;stroke:#000000;stroke-width:5;stroke-miterlimit:10;}
	.st5{fill:#FFFFFF;}
	.st6{fill:none;stroke:#000000;stroke-width:3;stroke-miterlimit:10;}
	.st7{fill:none;stroke:#000000;stroke-width:2;stroke-miterlimit:10;}
	.st8{fill:#C2782A;stroke:#000000;stroke-miterlimit:10;}
	.st9{fill:#E32028;stroke:#000000;stroke-width:0.25;stroke-miterlimit:10;}
	.st10{fill:#EDE827;stroke:#000000;stroke-width:0.25;stroke-miterlimit:10;}
	.st11{fill:#F16123;stroke:#000000;stroke-width:0.25;stroke-miterlimit:10;}
	.st12{fill:#EF6923;stroke:#000000;stroke-width:0.25;stroke-miterlimit:10;}
	.st13{fill:#961C1F;stroke:#000000;stroke-width:0.25;stroke-miterlimit:10;}
	.st14{fill:#F89824;}
	.st15{fill:none;stroke:#000000;stroke-width:10;stroke-miterlimit:10;}
	.st16{font-family:'Calibri';}
	.st17{font-size:99.5686px;}
	.st18{fill:#2968A2;stroke:#000000;stroke-width:0.75;stroke-miterlimit:10;}
</style>
<image style="overflow:visible;opacity:0;" width="400" height="400" xlink:href="logo.jpg"  transform="matrix(3.0536 0 0 3.0536 -173.2553 -110.7234)">
</image>
<g>
	<g>
		<polygon class="st0" points="333,948.8 352.7,922.4 321.9,873.2 375.5,914.6 382.2,986.1 		"/>
		<polygon class="st0" points="112.4,681.5 62,654 40.3,682 13.3,649.9 47,648.8 53.2,611 		"/>
		<path class="st0" d="M352.7,922.4L333,948.8L315.9,967c0,0-268.4-207.8-291.2-267.4L40.3,682L62,654c0,0,14.3,16.5,37.5,41.7
			c47.1,51.1,131.2,138.1,207.6,195.6v0C322.8,903.1,338.1,913.7,352.7,922.4z"/>
		<path class="st1" d="M352.7,922.4c-14.6-8.7-29.9-19.3-45.6-31.1v0l14.7-18.2L352.7,922.4z"/>
		<path class="st1" d="M112.4,681.5l-12.9,14.2C76.3,670.5,62,654,62,654L112.4,681.5z"/>
	</g>
	<g>
		<polygon class="st0" points="541.9,948.8 522.2,922.4 553.1,873.2 499.4,914.6 492.7,986.1 		"/>
		<polygon class="st0" points="762.5,681.5 812.9,654 834.7,682 861.6,649.9 827.9,648.8 821.7,611 		"/>
		<path class="st0" d="M522.2,922.4l19.7,26.4L559,967c0,0,268.4-207.8,291.2-267.4L834.7,682l-21.8-28c0,0-14.3,16.5-37.5,41.7
			c-47.1,51.1-131.2,138.1-207.6,195.6v0C552.2,903.1,536.9,913.7,522.2,922.4z"/>
		<path class="st1" d="M522.2,922.4c14.6-8.7,29.9-19.3,45.6-31.1v0l-14.7-18.2L522.2,922.4z"/>
		<path class="st1" d="M762.5,681.5l12.9,14.2c23.2-25.2,37.5-41.7,37.5-41.7L762.5,681.5z"/>
	</g>
</g>
<g>
	<path class="st2" d="M772.5,469.4l-0.6,102.9c0,4.6-1.2,9.2-3.6,13.2l-324-98.8c-5.5-1.7-11.4-1.7-16.9,0.1l-315,98.8
		c-2.3-4-3.5-8.6-3.5-13.2V470.1l320.4-96.8c5.3-1.6,11-1.6,16.4-0.1L772.5,469.4z"/>
	<path class="st3" d="M768.3,585.5c-22.7,39.7-153.3,255.6-326.4,305c-65.4,14.5-254-172.1-329.5-305l323.5-101.4L768.3,585.5z"/>
	<path class="st4" d="M774.9,62.1l-2.4,407.3l-335-98.6l-328.6,99.3V64.1c0-7.2,6.8-12.4,13.7-10.6c48.3,12.8,212.7,48,304.7-35.7
		c5.5-5.1,14-5.2,19.8-0.5C476.2,41,573.6,96.5,761.4,51.4C768.3,49.8,774.9,55,774.9,62.1z"/>
</g>
<g>
	<path class="st5" d="M670,295.2c0,0-5.4-25.8-65.5-25.8c0,0-23,55.4-44.9,80.8c0,0,64,36.9,86,33.2c0,0,2.1-0.3,11.7,3
		c9.6,3.3,86.3-0.1,88.3-6s3.2-102.7,3.2-102.7S702.9,277.7,670,295.2z"/>
	<path class="st6" d="M562.6,343.6c0,0,31-40,41-76.2c0,0,67.3,4.2,68.3,27.9c0,0,38.4-26.8,75.7-16.8v99.4"/>
	<g>
		<path d="M638.9,382.6c-4.7-5.1-32.2-32.2-75.1-31.8c-0.6,0-1.1-0.5-1.2-1.1l-0.1-3.9c0-0.6,0.5-1.2,1.1-1.2c26-0.3,46.4,9,59,16.9
			c11.5,7.2,18.6,14.5,20.9,16.9c0.4,0.5,0.4,1.2-0.1,1.6l-3.8,3.2l2.4-2l-1.5,1.3C640,383.1,639.3,383,638.9,382.6z"/>
	</g>
	<g>
		<path d="M649.7,385.8l-1.9-3.4c-0.3-0.6-0.1-1.3,0.5-1.6c3-1.5,12.2-5.5,26.3-8c15.5-2.7,40.2-4,70.2,5.3c0.6,0.2,0.9,0.8,0.8,1.4
			l-1.2,3.7c-0.2,0.6-0.8,0.9-1.4,0.7c-50.2-15.6-85.6-0.7-91.7,2.3C650.7,386.5,650,386.3,649.7,385.8z"/>
	</g>
	<path class="st7" d="M671.9,295.2c0,0-16.3,78.9-23.1,82.5"/>
	<g>
		<path d="M641.8,397.7c-2.2,0-4.2-0.4-5.9-1.2c-2.7-1.3-4.1-3.1-4.8-4.4c-0.1-0.2-0.3-0.4-0.5-0.5l-78.9-39c-0.6-0.3-0.8-1-0.5-1.5
			l0.8-1.6c0.3-0.6,1-0.8,1.5-0.5l80.3,39.6c0.3,0.1,0.5,0.4,0.6,0.7l0.1,0.4c0,0.1,0.8,2,3.3,3.1c3,1.4,7.5,0.9,12.9-1.2
			c15.1-6,85.6-5.5,95.8-5.4c0.6,0,1.1,0.5,1.1,1.2l0,1.8c0,0.6-0.5,1.1-1.1,1.1c-9.8-0.1-80.1-0.6-94.3,5.1
			C648.3,396.9,644.8,397.7,641.8,397.7z"/>
	</g>
	<g>
		<path d="M660.3,309.2c-4.7-3.8-27.8-21.8-43.1-23.4c-0.6-0.1-1-0.6-1-1.2l0.1-1.8c0-0.7,0.6-1.1,1.3-1.1
			c16.7,1.8,40.4,20.3,45.4,24.3c0.5,0.4,0.6,1.1,0.2,1.6l-1.2,1.4C661.4,309.5,660.7,309.6,660.3,309.2z"/>
	</g>
	<g>
		<path d="M654.8,323.3c-0.2,0.6-0.9,0.9-1.5,0.6c-3-1.4-11.7-5.9-22.3-16.9c-9.8-10.2-19.6-9.8-22.8-9.3c-0.6,0.1-1.1-0.3-1.3-0.8
			l-0.5-1.8c-0.2-0.7,0.3-1.3,0.9-1.4c3.8-0.6,15.3-1.1,26.5,10.5c9.9,10.3,18.1,14.6,20.9,15.9c0.5,0.3,0.8,0.9,0.6,1.4
			L654.8,323.3z"/>
	</g>
	<g>
		<path d="M649.6,343.1l-1.8-0.2c-0.6-0.1-1-0.5-1-1.1c0-0.7-0.1-1.5-0.6-1.9c-1-1-4-0.7-6.6-0.4c-3.8,0.4-7.8,0.8-10.2-1.7
			c-2-2.2-2.3-4.8-2.6-6.9c-0.1-1.2-0.3-2.4-0.7-2.8c-0.2-0.1-1-0.5-3.7,0.1c-8.9,1.9-11.5-6.5-13.1-11.6c-0.4-1.2-0.9-2.8-1.3-3.5
			c-0.1-0.2-0.3-0.3-0.5-0.4c-1.6-0.7-7.1-0.5-12.5,0.5c-0.6,0.1-1.2-0.3-1.3-0.9l-0.4-1.8c-0.1-0.6,0.3-1.2,0.9-1.3
			c4.7-0.9,13.7-2,16.5,0.8c1.1,1.1,1.7,3,2.5,5.4c1.8,5.8,3.4,9.8,8.3,8.7c3.2-0.7,5.4-0.5,7,0.6c1.9,1.4,2.2,3.6,2.4,5.6
			c0.2,1.8,0.4,3.4,1.5,4.6c1,1,4,0.7,6.7,0.4c3.7-0.4,7.6-0.8,10,1.5c1.2,1.2,1.8,2.8,1.8,5C650.9,342.7,650.3,343.2,649.6,343.1z"
			/>
	</g>
	<g>
		<path d="M639.6,364.2c-3.2-7.7-15.2-16.5-18.6-18.8c-0.5-0.4-0.6-1-0.3-1.6l1-1.5c0.4-0.5,1.1-0.7,1.6-0.3
			c3.7,2.5,16.5,11.9,20.2,20.8c0.3,0.6-0.1,1.3-0.7,1.5l-1.8,0.6C640.4,365,639.8,364.8,639.6,364.2z"/>
	</g>
	<g>
		<path d="M692.8,368.7h-31.4c-0.6,0-1.1-0.5-1.1-1.1v-1.8c0-0.6,0.5-1.1,1.1-1.1h31.4c0.6,0,1.1,0.5,1.1,1.1v1.8
			C694,368.2,693.5,368.7,692.8,368.7z"/>
	</g>
	<g>
		<path d="M663,354.6l-1.1-1.5c-0.4-0.5-0.3-1.3,0.3-1.6c3.3-2.2,14.3-8.6,24.5-5.7c5,1.4,11.6-0.6,18-2.6c6.7-2.1,13-4.1,17.5-2
			c3.4,1.6,5.3,2.9,6.6,3.7c1.2,0.8,1.6,1.1,2.2,1c0.5,0,1,0.3,1.1,0.8l0.5,1.8c0.2,0.7-0.3,1.3-0.9,1.4c-2.3,0.3-3.5-0.5-5.2-1.7
			c-1.2-0.8-3-2-6-3.4c-3.1-1.5-8.7,0.3-14.6,2.1c-6.9,2.2-14.1,4.5-20.4,2.7c-8.3-2.4-18,3.2-21,5.1
			C664,355.2,663.4,355.1,663,354.6z"/>
	</g>
	<g>
		<path d="M668.7,331.9l-1.7-0.8c-0.6-0.3-0.9-1.1-0.4-1.7c2-2.6,8.3-8.5,24.7-4.8c8.4,1.9,14.2-2.2,19.8-6.2
			c5.7-4.1,11.6-8.3,19.2-4.1c0.6,0.3,0.8,1.1,0.4,1.6l-1,1.5c-0.3,0.5-1,0.7-1.5,0.4c-5-2.8-8.8-0.4-14.7,3.9
			c-5.7,4.1-12.9,9.2-23.1,6.9c-13.8-3.1-18.8,1.1-20.3,2.9C669.7,332,669.1,332.2,668.7,331.9z"/>
	</g>
	<g>
		<path d="M677.7,311.1l-1-1.5c-0.4-0.5-0.2-1.2,0.3-1.6c5.9-3.9,36.1-22.9,53.2-15.1c0.6,0.3,0.8,1,0.5,1.6l-0.9,1.6
			c-0.3,0.5-0.9,0.7-1.5,0.5c-14.9-6.7-43.6,11.3-49.1,14.9C678.7,311.7,678,311.6,677.7,311.1z"/>
	</g>
</g>
<g>
	<path class="st8" d="M542,567.5H329.3c0,0-13.9-4.8,0-11.8H542C542,555.7,555.6,562.6,542,567.5z"/>
	<path class="st8" d="M542.3,579.3H329.5c0,0-13.9-4.8,0-11.8h212.8C542.3,567.5,555.9,574.4,542.3,579.3z"/>
	<path class="st8" d="M542.3,591.1H329.5c0,0-13.9-4.8,0-11.8h212.8C542.3,579.3,555.9,586.2,542.3,591.1z"/>
	<path class="st8" d="M542.3,602.8H329.5c0,0-13.9-4.8,0-11.8h212.8C542.3,591.1,555.9,598,542.3,602.8z"/>
	<path class="st8" d="M540.8,614.6H328c0,0-13.9-4.8,0-11.8h212.8C540.8,602.8,554.4,609.8,540.8,614.6z"/>
	<path class="st8" d="M539,626.4H326.2c0,0-13.9-4.8,0-11.8H539C539,614.6,552.6,621.6,539,626.4z"/>
	<path class="st8" d="M359.8,555.7c0,0-2.7,66.8,0,70.7"/>
	<path class="st8" d="M374,626.4c0,0-3-62,1.5-70.7"/>
	<path class="st8" d="M496.9,626.4c0,0-4.4-60.4,1.6-70.7"/>
	<path class="st8" d="M511.8,555.7c0,0-4.5,49.3,0,70.7"/>
</g>
<g>
	<path class="st9" d="M180,309c-3.7,1.2-19.3,5-32.3-12.4c-0.2-0.3,0-0.6,0.4-0.6c2.8,0.5,11.1,1.8,10.5-1.4c0-0.1-0.1-0.3-0.3-0.3
		c-2.3-0.5-22.2-5.5-19.6-38c0,0,0,0,0,0c1.4-8.6-3.4-16.9-8.1-19.7c-0.3-0.2-0.2-0.7,0.2-0.7c4.1,0,15.6,1.1,17.9,12.6c0,0,0,0,0,0
		c0.7,5.1,2.3,21.8,5.1,12.3c0.1-0.3,0.5-0.4,0.7-0.1c1.6,2.7,7.7,11.6,19.4,12.5c4.9,0.1,4.9-0.7,1-4.7c-0.3-0.3,0-0.7,0.4-0.6
		c3,1.2,9.2,3.4,12.4,2.5c4.4-1.3,20.9-1.5,18.4,13.2c0,0,0,0,0,0c-1.3,4.7-1.8,6.1-3.2,3.6c-1.4-2.5-5.1-6.1-3.8-1.1
		c1,3.6,0.8,5.4,0.6,6.1c-0.1,0.2-0.3,0.3-0.5,0.2c-2.1-0.8-13.7-5.3-11.9-2c1,1.9,2.2,2.9,3.1,3.4c0.3,0.2,0.2,0.7-0.2,0.7
		c-3.9,0.1-14.8-0.9-29.2-11.8c0,0,0,0-0.1,0c-0.5-0.6-9.3-10.4-1.4,5c1.5,3.5,15.1,9.5,18.8,11.5c3.7,2-5.7,2.6-8.5,1.7
		c-2.7-0.9-4.8-0.3,10.1,7.2C180.3,308.5,180.3,308.9,180,309z"/>
	<path class="st9" d="M149.5,244.5c0,0-3.1-11.2-11.4-11.9c-8.3-0.7-13-9.5-13-9.5s9.1,5.4,14.8,4.8
		C145.6,227.3,150.7,235.8,149.5,244.5z"/>
	<path class="st10" d="M203.8,284.1c0,0-2.5-10.1-15.7-9.4c0,0-1.2,0.9,1.6,1.8c2.8,0.9-8.5,4.2-20,1c0,0-3.7,0.3,6.5,6.3
		c2,1-0.7,3.2-7.1,0.3c0,0,9.3,12.1,18.3,9.4c0,0-4.6-4.9-2.7-6.3c2-1.4,11.4,0.6,11.4,0.6s0.7-3-2.2-7.3
		C190.9,276.1,203.8,284.1,203.8,284.1z"/>
	<path class="st11" d="M215.9,290.1l-39.5,35.4c0,0-3.1-1.1-3.6-4.1l39.5-35.4C212.3,286,215.4,286.3,215.9,290.1z"/>
	<path class="st10" d="M164.9,311.6c0,0,5.7,4.4,10.8,1.3C175.7,313,168.7,322.6,164.9,311.6z"/>
	<path class="st10" d="M181.9,266.2c0,0-5.5,0.9-9.1-3.8c-3.7-4.7-2.2-8,1.6-8.4c3.8-0.4,5.6,3.3,4.4,4.9s-4.2,0.5-4.7-1.6
		C173.5,255.2,174.6,267.1,181.9,266.2z"/>
	<path class="st10" d="M145.9,292.1c0,0-4.8-5.7-5.3-10c-0.5-4.4-9.7-6.1-9.7-6.1s5.7,5.2,7.3,9.1s2.1,4.1,0.1,3.5
		C136.5,287.9,141.6,293.5,145.9,292.1z"/>
	<path class="st12" d="M219.2,317.3c-2.5,5.7-7.1,10.8-14,13.3c-0.6,0.2-1.2,0.4-1.8,0.6c-21,5.6-25.1-7.3-25.1-7.3l36.1-32.3
		C221.5,295,223.6,307.2,219.2,317.3z"/>
	<path class="st13" d="M205.2,330.5l65.3,63.3c0.9,0.8,2.3,0.9,3.2,0.1l1.7-1.5c0.9-0.8,1-2.2,0.3-3.2l-56.4-71.9
		C216.7,323,212.2,328.1,205.2,330.5z M274.9,389.3c0.9,1.2,0.7,2.9-0.5,3.8c-0.8,0.6-1.7,1.1-2.2,1.1c-1.2,0-57.6-62.1-57.6-62.1
		c4.3-3.4,6.1-10.5,6.1-10.5L274.9,389.3z"/>
	<path class="st14" d="M220.7,321.6l54.2,67.6c0.9,1.2,0.7,2.9-0.5,3.8c-0.8,0.6-1.7,1.1-2.2,1.1c-1.2,0-57.6-62.1-57.6-62.1
		C218.9,328.7,220.7,321.6,220.7,321.6z"/>
</g>
<line class="st15" x1="774.9" y1="470.1" x2="772.5" y2="469.4"/>
<g>
	<path class="st5" d="M137.4,474.2L137.4,474.2c-0.4-1.3,0.3-2.8,1.7-3.2L431.9,382c2.6-0.8,5.4-0.8,8-0.1L738,467
		c1.3,0.4,2.1,1.8,1.7,3.1l0,0c-0.4,1.3-1.8,2.1-3.1,1.7l-298.2-85.1c-1.7-0.5-3.4-0.5-5.1,0l-292.8,89.1
		C139.2,476.3,137.8,475.6,137.4,474.2z"/>
</g>
<g>
	<path class="st5" d="M137.4,564.5L137.4,564.5c-0.4-1.3,0.3-2.8,1.7-3.2l292.8-89.1c2.6-0.8,5.4-0.8,8-0.1L738,557.3
		c1.3,0.4,2.1,1.8,1.7,3.1l0,0c-0.4,1.3-1.8,2.1-3.1,1.7l-298.2-85.1c-1.7-0.5-3.4-0.5-5.1,0l-292.8,89.1
		C139.2,566.6,137.8,565.9,137.4,564.5z"/>
</g>
<g>
	<path class="st5" d="M215.8,171.9c0,0.2,0,0.3-0.1,0.5c-0.1,0.1-0.3,0.2-0.5,0.3c-0.2,0.1-0.5,0.1-0.9,0.2
		c-0.4,0.1-0.8,0.1-1.4,0.1c-0.5,0-1,0-1.4-0.1c-0.4-0.1-0.7-0.1-0.9-0.2c-0.2-0.1-0.4-0.2-0.5-0.3s-0.1-0.3-0.1-0.5v-38.5h-0.1
		l-15.6,38.7c-0.1,0.2-0.2,0.3-0.3,0.4c-0.1,0.1-0.3,0.2-0.5,0.3s-0.5,0.1-0.9,0.2c-0.3,0-0.7,0.1-1.2,0.1c-0.5,0-0.9,0-1.2-0.1
		c-0.3,0-0.6-0.1-0.9-0.2c-0.2-0.1-0.4-0.2-0.5-0.3c-0.1-0.1-0.2-0.2-0.3-0.4l-14.9-38.7h0v38.5c0,0.2,0,0.3-0.1,0.5
		c-0.1,0.1-0.3,0.2-0.5,0.3c-0.2,0.1-0.5,0.1-0.9,0.2c-0.4,0.1-0.9,0.1-1.4,0.1c-0.6,0-1,0-1.4-0.1c-0.4-0.1-0.7-0.1-0.9-0.2
		c-0.2-0.1-0.4-0.2-0.5-0.3c-0.1-0.1-0.1-0.3-0.1-0.5v-40.7c0-1,0.3-1.6,0.8-2.1c0.5-0.4,1.1-0.6,1.7-0.6h3.6c0.7,0,1.4,0.1,1.9,0.2
		c0.6,0.1,1,0.4,1.5,0.6c0.4,0.3,0.8,0.7,1,1.1c0.3,0.5,0.5,1,0.7,1.6l12.6,32h0.2l13.2-31.9c0.3-0.7,0.5-1.3,0.8-1.7s0.6-0.9,1-1.1
		c0.4-0.3,0.8-0.5,1.2-0.6c0.4-0.1,0.9-0.2,1.5-0.2h3.8c0.3,0,0.7,0.1,1,0.2c0.3,0.1,0.6,0.3,0.8,0.5c0.2,0.2,0.4,0.5,0.5,0.8
		c0.1,0.3,0.2,0.7,0.2,1.2V171.9z"/>
	<path class="st5" d="M255.6,156.2c0,2.5-0.3,4.8-1,6.9c-0.7,2.1-1.6,3.9-3,5.5c-1.3,1.5-3,2.7-4.9,3.6c-2,0.9-4.3,1.3-6.9,1.3
		c-2.5,0-4.7-0.4-6.6-1.1s-3.4-1.8-4.7-3.3c-1.3-1.4-2.2-3.2-2.8-5.2c-0.6-2.1-0.9-4.4-0.9-7c0-2.5,0.3-4.8,1-6.9
		c0.6-2.1,1.6-3.9,2.9-5.5c1.3-1.5,2.9-2.7,4.9-3.6s4.3-1.3,6.9-1.3c2.5,0,4.7,0.4,6.6,1.1c1.9,0.8,3.4,1.8,4.7,3.3
		c1.3,1.4,2.2,3.2,2.8,5.2C255.2,151.3,255.6,153.6,255.6,156.2z M249.7,156.6c0-1.7-0.2-3.2-0.5-4.7c-0.3-1.5-0.8-2.8-1.5-3.9
		c-0.7-1.1-1.7-2-2.9-2.6c-1.2-0.6-2.7-1-4.6-1c-1.7,0-3.1,0.3-4.3,0.9c-1.2,0.6-2.2,1.4-3,2.5c-0.8,1.1-1.4,2.4-1.7,3.8
		c-0.4,1.5-0.6,3.1-0.6,4.9c0,1.7,0.2,3.3,0.5,4.8c0.3,1.5,0.8,2.8,1.6,3.9c0.7,1.1,1.7,2,2.9,2.6c1.2,0.6,2.7,1,4.6,1
		c1.7,0,3.1-0.3,4.3-0.9c1.2-0.6,2.2-1.4,3-2.5c0.8-1.1,1.4-2.3,1.7-3.8C249.5,160,249.7,158.4,249.7,156.6z"/>
	<path class="st5" d="M283.2,163.6c0,1.6-0.3,3-0.9,4.2c-0.6,1.2-1.4,2.3-2.5,3.1c-1.1,0.8-2.3,1.5-3.8,1.9s-3.1,0.6-4.9,0.6
		c-1.1,0-2.1-0.1-3.1-0.3c-1-0.2-1.9-0.4-2.7-0.6c-0.8-0.3-1.5-0.5-2-0.8c-0.5-0.3-0.9-0.5-1.2-0.8c-0.3-0.2-0.4-0.5-0.5-1
		c-0.1-0.4-0.2-1-0.2-1.7c0-0.4,0-0.8,0.1-1.1c0-0.3,0.1-0.5,0.2-0.7c0.1-0.2,0.2-0.3,0.3-0.4c0.1-0.1,0.3-0.1,0.4-0.1
		c0.3,0,0.6,0.2,1.1,0.5c0.5,0.3,1.1,0.6,1.8,1c0.7,0.4,1.6,0.7,2.5,1c1,0.3,2.1,0.5,3.4,0.5c1,0,1.8-0.1,2.6-0.3
		c0.8-0.2,1.4-0.5,2-0.9c0.6-0.4,1-0.9,1.3-1.5c0.3-0.6,0.5-1.3,0.5-2.2c0-0.9-0.2-1.6-0.7-2.2c-0.4-0.6-1-1.1-1.8-1.6
		c-0.7-0.5-1.6-0.9-2.5-1.2c-0.9-0.4-1.9-0.7-2.8-1.1c-1-0.4-1.9-0.8-2.8-1.3c-0.9-0.5-1.7-1.1-2.5-1.8c-0.7-0.7-1.3-1.5-1.8-2.5
		c-0.4-1-0.7-2.2-0.7-3.5c0-1.2,0.2-2.4,0.7-3.5c0.5-1.1,1.2-2.1,2.1-2.9c0.9-0.8,2.1-1.5,3.5-2c1.4-0.5,3-0.8,4.9-0.8
		c0.8,0,1.6,0.1,2.5,0.2s1.6,0.3,2.2,0.5c0.7,0.2,1.2,0.4,1.7,0.7c0.5,0.2,0.8,0.5,1.1,0.6c0.2,0.2,0.4,0.3,0.5,0.5
		c0.1,0.1,0.1,0.3,0.2,0.5s0.1,0.4,0.1,0.6c0,0.3,0.1,0.6,0.1,0.9c0,0.4,0,0.7-0.1,1c0,0.3-0.1,0.5-0.2,0.7
		c-0.1,0.2-0.2,0.3-0.3,0.4c-0.1,0.1-0.2,0.1-0.4,0.1c-0.2,0-0.5-0.1-0.9-0.4c-0.4-0.3-0.9-0.5-1.5-0.8c-0.6-0.3-1.3-0.6-2.2-0.8
		c-0.8-0.3-1.8-0.4-2.9-0.4c-1,0-1.8,0.1-2.5,0.3c-0.7,0.2-1.3,0.5-1.8,0.9c-0.5,0.4-0.8,0.9-1.1,1.4c-0.2,0.5-0.4,1.1-0.4,1.8
		c0,0.9,0.2,1.6,0.7,2.2c0.5,0.6,1,1.1,1.8,1.6c0.7,0.5,1.6,0.9,2.5,1.2c0.9,0.4,1.9,0.7,2.9,1.1c1,0.4,1.9,0.8,2.9,1.3
		c0.9,0.5,1.8,1.1,2.5,1.7c0.7,0.7,1.3,1.5,1.8,2.5C283,161.1,283.2,162.3,283.2,163.6z"/>
	<path class="st5" d="M317.7,171.9c0,0.2,0,0.3-0.1,0.5c-0.1,0.1-0.2,0.2-0.4,0.3s-0.5,0.2-0.9,0.2c-0.4,0-0.8,0.1-1.4,0.1
		c-0.6,0-1,0-1.4-0.1c-0.4,0-0.6-0.1-0.9-0.2s-0.4-0.2-0.4-0.3c-0.1-0.1-0.1-0.3-0.1-0.5v-18c0-1.8-0.1-3.2-0.4-4.2s-0.7-2-1.2-2.8
		c-0.5-0.8-1.2-1.4-2-1.8c-0.8-0.4-1.8-0.6-2.9-0.6c-1.4,0-2.8,0.5-4.2,1.5c-1.4,1-2.9,2.5-4.4,4.4v21.5c0,0.2,0,0.3-0.1,0.5
		c-0.1,0.1-0.2,0.2-0.4,0.3s-0.5,0.2-0.9,0.2c-0.4,0-0.8,0.1-1.4,0.1c-0.5,0-1,0-1.4-0.1c-0.4,0-0.7-0.1-0.9-0.2
		c-0.2-0.1-0.4-0.2-0.4-0.3c-0.1-0.1-0.1-0.3-0.1-0.5v-45.7c0-0.2,0-0.3,0.1-0.5c0.1-0.1,0.2-0.3,0.4-0.3c0.2-0.1,0.5-0.2,0.9-0.2
		c0.4,0,0.8-0.1,1.4-0.1c0.6,0,1,0,1.4,0.1c0.4,0,0.6,0.1,0.9,0.2c0.2,0.1,0.4,0.2,0.4,0.3c0.1,0.1,0.1,0.3,0.1,0.5v18.4
		c1.6-1.7,3.2-3,4.9-3.8c1.6-0.8,3.3-1.2,5-1.2c2.1,0,3.8,0.3,5.2,1c1.4,0.7,2.5,1.6,3.4,2.8c0.9,1.2,1.5,2.5,1.9,4.1
		c0.4,1.6,0.6,3.4,0.6,5.7V171.9z"/>
	<path class="st5" d="M334.3,130.8c0,1.3-0.3,2.2-0.8,2.7c-0.5,0.5-1.4,0.7-2.8,0.7c-1.3,0-2.2-0.2-2.7-0.7
		c-0.5-0.5-0.7-1.4-0.7-2.6c0-1.3,0.3-2.2,0.8-2.7c0.5-0.5,1.4-0.7,2.8-0.7c1.3,0,2.2,0.2,2.7,0.7
		C334.1,128.6,334.3,129.5,334.3,130.8z M333.7,171.9c0,0.2,0,0.3-0.1,0.5c-0.1,0.1-0.2,0.2-0.4,0.3s-0.5,0.2-0.9,0.2
		c-0.4,0-0.8,0.1-1.4,0.1c-0.5,0-1,0-1.4-0.1c-0.4,0-0.7-0.1-0.9-0.2c-0.2-0.1-0.4-0.2-0.4-0.3c-0.1-0.1-0.1-0.3-0.1-0.5v-30.8
		c0-0.2,0-0.3,0.1-0.4c0.1-0.1,0.2-0.3,0.4-0.3c0.2-0.1,0.5-0.2,0.9-0.2c0.4,0,0.8-0.1,1.4-0.1c0.6,0,1,0,1.4,0.1
		c0.4,0,0.6,0.1,0.9,0.2c0.2,0.1,0.4,0.2,0.4,0.3c0.1,0.1,0.1,0.3,0.1,0.4V171.9z"/>
	<path class="st5" d="M390.1,166.5c0,0.4,0,0.7,0,1c0,0.3-0.1,0.5-0.1,0.7c-0.1,0.2-0.1,0.4-0.2,0.5c-0.1,0.2-0.3,0.4-0.5,0.6
		c-0.2,0.2-0.7,0.6-1.4,1c-0.7,0.5-1.6,0.9-2.7,1.4c-1.1,0.4-2.3,0.8-3.7,1.1c-1.4,0.3-2.9,0.5-4.6,0.5c-2.9,0-5.5-0.5-7.8-1.4
		c-2.3-1-4.3-2.4-5.9-4.2c-1.6-1.9-2.9-4.2-3.8-6.9c-0.9-2.7-1.3-5.9-1.3-9.5c0-3.7,0.5-6.9,1.4-9.8c0.9-2.9,2.3-5.3,4-7.3
		c1.7-2,3.8-3.5,6.1-4.6c2.4-1,5-1.6,7.9-1.6c1.3,0,2.5,0.1,3.7,0.4c1.2,0.2,2.3,0.5,3.4,0.9c1,0.4,1.9,0.8,2.7,1.3
		c0.8,0.5,1.4,0.9,1.7,1.2s0.5,0.5,0.6,0.7c0.1,0.2,0.2,0.3,0.2,0.6c0.1,0.2,0.1,0.5,0.1,0.8c0,0.3,0.1,0.6,0.1,1.1
		c0,0.5,0,0.8-0.1,1.2c0,0.3-0.1,0.6-0.2,0.8c-0.1,0.2-0.2,0.4-0.3,0.5s-0.3,0.2-0.5,0.2c-0.3,0-0.8-0.2-1.3-0.7
		c-0.6-0.4-1.3-0.9-2.2-1.5c-0.9-0.5-2-1-3.3-1.5s-2.8-0.7-4.7-0.7c-2,0-3.8,0.4-5.4,1.2c-1.6,0.8-3,1.9-4.1,3.5
		c-1.1,1.5-2,3.4-2.7,5.6c-0.6,2.2-0.9,4.7-0.9,7.5c0,2.8,0.3,5.3,0.9,7.4c0.6,2.2,1.5,4,2.6,5.4c1.1,1.4,2.5,2.5,4.2,3.3
		c1.6,0.7,3.5,1.1,5.6,1.1c1.8,0,3.3-0.2,4.6-0.6c1.3-0.4,2.4-0.9,3.4-1.5s1.7-1,2.3-1.5c0.6-0.4,1.1-0.6,1.4-0.6
		c0.2,0,0.3,0,0.4,0.1s0.2,0.2,0.3,0.4c0.1,0.2,0.1,0.5,0.2,0.8S390.1,166,390.1,166.5z"/>
	<path class="st5" d="M425.9,156.2c0,2.5-0.3,4.8-1,6.9c-0.7,2.1-1.6,3.9-3,5.5c-1.3,1.5-3,2.7-4.9,3.6c-2,0.9-4.3,1.3-6.9,1.3
		c-2.5,0-4.7-0.4-6.6-1.1s-3.4-1.8-4.7-3.3c-1.3-1.4-2.2-3.2-2.8-5.2c-0.6-2.1-0.9-4.4-0.9-7c0-2.5,0.3-4.8,1-6.9
		c0.6-2.1,1.6-3.9,2.9-5.5c1.3-1.5,2.9-2.7,4.9-3.6s4.3-1.3,6.9-1.3c2.5,0,4.7,0.4,6.6,1.1c1.9,0.8,3.4,1.8,4.7,3.3
		c1.3,1.4,2.2,3.2,2.8,5.2C425.6,151.3,425.9,153.6,425.9,156.2z M420,156.6c0-1.7-0.2-3.2-0.5-4.7c-0.3-1.5-0.8-2.8-1.5-3.9
		c-0.7-1.1-1.7-2-2.9-2.6c-1.2-0.6-2.7-1-4.6-1c-1.7,0-3.1,0.3-4.3,0.9c-1.2,0.6-2.2,1.4-3,2.5c-0.8,1.1-1.4,2.4-1.7,3.8
		c-0.4,1.5-0.6,3.1-0.6,4.9c0,1.7,0.2,3.3,0.5,4.8c0.3,1.5,0.8,2.8,1.6,3.9c0.7,1.1,1.7,2,2.9,2.6c1.2,0.6,2.7,1,4.6,1
		c1.7,0,3.1-0.3,4.3-0.9c1.2-0.6,2.2-1.4,3-2.5c0.8-1.1,1.4-2.3,1.7-3.8C419.8,160,420,158.4,420,156.6z"/>
	<path class="st5" d="M448,155.5c0,0.9-0.1,1.5-0.3,1.8c-0.2,0.3-0.5,0.5-0.9,0.5h-14.3c-0.4,0-0.7-0.2-0.9-0.5
		c-0.2-0.4-0.3-1-0.3-1.8c0-0.9,0.1-1.5,0.3-1.8s0.5-0.5,0.9-0.5h14.3c0.2,0,0.3,0,0.5,0.1s0.3,0.2,0.4,0.4c0.1,0.2,0.2,0.4,0.2,0.7
		C448,154.7,448,155.1,448,155.5z"/>
	<path class="st5" d="M484.2,156.2c0,2.5-0.3,4.8-1,6.9s-1.6,3.9-3,5.5c-1.3,1.5-3,2.7-4.9,3.6c-2,0.9-4.3,1.3-6.9,1.3
		c-2.5,0-4.7-0.4-6.6-1.1c-1.9-0.8-3.4-1.8-4.7-3.3c-1.3-1.4-2.2-3.2-2.8-5.2s-0.9-4.4-0.9-7c0-2.5,0.3-4.8,1-6.9
		c0.6-2.1,1.6-3.9,2.9-5.5c1.3-1.5,2.9-2.7,4.9-3.6s4.2-1.3,6.9-1.3c2.5,0,4.7,0.4,6.6,1.1c1.9,0.8,3.4,1.8,4.7,3.3
		c1.3,1.4,2.2,3.2,2.8,5.2C483.9,151.3,484.2,153.6,484.2,156.2z M478.4,156.6c0-1.7-0.2-3.2-0.5-4.7c-0.3-1.5-0.8-2.8-1.5-3.9
		c-0.7-1.1-1.7-2-2.9-2.6s-2.7-1-4.6-1c-1.7,0-3.1,0.3-4.3,0.9c-1.2,0.6-2.2,1.4-3,2.5c-0.8,1.1-1.4,2.4-1.7,3.8
		c-0.4,1.5-0.6,3.1-0.6,4.9c0,1.7,0.2,3.3,0.5,4.8c0.3,1.5,0.8,2.8,1.6,3.9c0.7,1.1,1.7,2,2.9,2.6c1.2,0.6,2.7,1,4.6,1
		c1.7,0,3.1-0.3,4.3-0.9c1.2-0.6,2.2-1.4,3-2.5c0.8-1.1,1.4-2.3,1.7-3.8C478.2,160,478.4,158.4,478.4,156.6z"/>
	<path class="st5" d="M520.8,156.1c0,2.7-0.3,5.1-0.9,7.2s-1.4,4-2.6,5.5s-2.5,2.6-4.2,3.5c-1.7,0.8-3.6,1.2-5.7,1.2
		c-0.9,0-1.8-0.1-2.5-0.3c-0.8-0.2-1.5-0.5-2.3-0.9c-0.7-0.4-1.5-0.9-2.2-1.5c-0.7-0.6-1.5-1.3-2.3-2.1v15.4c0,0.2,0,0.3-0.1,0.5
		c-0.1,0.1-0.2,0.3-0.4,0.3c-0.2,0.1-0.5,0.2-0.9,0.2c-0.4,0-0.8,0.1-1.4,0.1c-0.5,0-1,0-1.4-0.1c-0.4,0-0.7-0.1-0.9-0.2
		c-0.2-0.1-0.4-0.2-0.4-0.3s-0.1-0.3-0.1-0.5v-43c0-0.2,0-0.4,0.1-0.5c0.1-0.1,0.2-0.2,0.4-0.3c0.2-0.1,0.5-0.2,0.8-0.2
		s0.7-0.1,1.2-0.1c0.5,0,0.9,0,1.2,0.1s0.6,0.1,0.8,0.2c0.2,0.1,0.3,0.2,0.4,0.3c0.1,0.1,0.1,0.3,0.1,0.5v4.1c0.9-1,1.8-1.8,2.7-2.5
		c0.9-0.7,1.7-1.3,2.6-1.8c0.9-0.5,1.8-0.8,2.7-1.1s1.9-0.4,2.9-0.4c2.2,0,4.1,0.4,5.7,1.3s2.9,2.1,3.8,3.6c1,1.5,1.7,3.3,2.2,5.2
		C520.6,151.7,520.8,153.9,520.8,156.1z M515,156.7c0-1.6-0.1-3.1-0.4-4.6c-0.2-1.5-0.7-2.8-1.2-3.9c-0.6-1.1-1.4-2.1-2.4-2.7
		c-1-0.7-2.2-1-3.7-1c-0.7,0-1.5,0.1-2.2,0.3c-0.7,0.2-1.4,0.6-2.2,1c-0.7,0.5-1.5,1.1-2.3,1.8c-0.8,0.8-1.7,1.7-2.5,2.8v12.2
		c1.6,1.9,3,3.3,4.4,4.3c1.4,1,2.9,1.5,4.4,1.5c1.4,0,2.6-0.3,3.7-1c1-0.7,1.8-1.6,2.5-2.7c0.6-1.1,1.1-2.4,1.4-3.8
		S515,158.2,515,156.7z"/>
	<path class="st5" d="M555.6,155.2c0,0.9-0.2,1.5-0.7,1.9c-0.4,0.4-1,0.6-1.5,0.6h-20.3c0,1.7,0.2,3.2,0.5,4.6
		c0.3,1.4,0.9,2.5,1.7,3.5c0.8,1,1.8,1.7,3.1,2.3c1.3,0.5,2.9,0.8,4.7,0.8c1.5,0,2.8-0.1,3.9-0.4c1.1-0.2,2.1-0.5,3-0.8
		c0.8-0.3,1.5-0.6,2.1-0.8c0.5-0.2,0.9-0.4,1.2-0.4c0.2,0,0.3,0,0.4,0.1c0.1,0.1,0.2,0.2,0.3,0.4c0.1,0.2,0.1,0.4,0.2,0.7
		c0,0.3,0.1,0.6,0.1,1c0,0.3,0,0.6,0,0.8c0,0.2-0.1,0.4-0.1,0.6s-0.1,0.3-0.2,0.5c-0.1,0.1-0.2,0.3-0.3,0.4
		c-0.1,0.1-0.5,0.3-1.1,0.6s-1.4,0.6-2.4,0.8c-1,0.3-2.1,0.5-3.4,0.7c-1.3,0.2-2.7,0.3-4.1,0.3c-2.5,0-4.7-0.4-6.6-1.1
		c-1.9-0.7-3.5-1.8-4.8-3.1c-1.3-1.4-2.3-3.1-2.9-5.2c-0.7-2.1-1-4.5-1-7.3c0-2.6,0.3-5,1-7.1s1.7-3.9,3-5.4
		c1.3-1.5,2.8-2.6,4.7-3.4c1.8-0.8,3.9-1.2,6.1-1.2c2.4,0,4.5,0.4,6.2,1.2c1.7,0.8,3.1,1.8,4.2,3.1s1.9,2.8,2.4,4.6
		c0.5,1.8,0.8,3.7,0.8,5.7V155.2z M549.9,153.6c0.1-3-0.6-5.3-2-7s-3.4-2.5-6.2-2.5c-1.4,0-2.6,0.3-3.7,0.8
		c-1.1,0.5-1.9,1.2-2.6,2.1s-1.3,1.9-1.7,3c-0.4,1.2-0.6,2.4-0.7,3.6H549.9z"/>
	<path class="st5" d="M582.1,143.2c0,0.5,0,0.9,0,1.3s-0.1,0.6-0.1,0.8c-0.1,0.2-0.2,0.3-0.3,0.4s-0.2,0.2-0.4,0.2s-0.4-0.1-0.7-0.2
		s-0.6-0.2-0.9-0.3s-0.7-0.2-1.1-0.3c-0.4-0.1-0.9-0.1-1.3-0.1c-0.6,0-1.1,0.1-1.7,0.3c-0.5,0.2-1.1,0.6-1.7,1.1s-1.2,1.2-1.9,2.1
		c-0.7,0.9-1.4,1.9-2.2,3.2v20.2c0,0.2,0,0.3-0.1,0.5c-0.1,0.1-0.2,0.2-0.4,0.3s-0.5,0.2-0.9,0.2c-0.4,0-0.8,0.1-1.4,0.1
		c-0.5,0-1,0-1.4-0.1c-0.4,0-0.7-0.1-0.9-0.2c-0.2-0.1-0.4-0.2-0.4-0.3c-0.1-0.1-0.1-0.3-0.1-0.5v-30.8c0-0.2,0-0.3,0.1-0.5
		c0.1-0.1,0.2-0.2,0.4-0.3s0.5-0.2,0.8-0.2s0.7-0.1,1.3-0.1c0.5,0,0.9,0,1.2,0.1s0.6,0.1,0.8,0.2c0.2,0.1,0.3,0.2,0.4,0.3
		c0.1,0.1,0.1,0.3,0.1,0.5v4.5c0.8-1.2,1.6-2.2,2.4-3c0.7-0.8,1.4-1.4,2.1-1.8c0.7-0.4,1.3-0.8,2-0.9c0.6-0.2,1.3-0.3,2-0.3
		c0.3,0,0.6,0,1,0.1s0.8,0.1,1.2,0.2c0.4,0.1,0.8,0.2,1.1,0.3c0.3,0.1,0.6,0.2,0.7,0.3c0.1,0.1,0.2,0.2,0.3,0.3
		c0,0.1,0.1,0.2,0.1,0.4c0,0.2,0.1,0.4,0.1,0.7C582.1,142.3,582.1,142.7,582.1,143.2z"/>
	<path class="st5" d="M610.3,172c0,0.3-0.1,0.5-0.3,0.6s-0.4,0.2-0.8,0.3c-0.3,0.1-0.8,0.1-1.4,0.1c-0.6,0-1.1,0-1.4-0.1
		c-0.4-0.1-0.6-0.2-0.8-0.3s-0.2-0.3-0.2-0.6v-3.1c-1.3,1.4-2.8,2.6-4.5,3.4s-3.4,1.2-5.2,1.2c-1.6,0-3.1-0.2-4.4-0.6
		s-2.4-1-3.3-1.8c-0.9-0.8-1.6-1.8-2.2-2.9c-0.5-1.2-0.8-2.5-0.8-4c0-1.7,0.4-3.2,1.1-4.5c0.7-1.3,1.7-2.3,3-3.2
		c1.3-0.8,2.9-1.5,4.9-1.9c1.9-0.4,4.1-0.6,6.5-0.6h4.2v-2.4c0-1.2-0.1-2.2-0.4-3.1c-0.3-0.9-0.7-1.7-1.2-2.3
		c-0.6-0.6-1.3-1.1-2.2-1.4c-0.9-0.3-2-0.5-3.3-0.5c-1.4,0-2.6,0.2-3.7,0.5c-1.1,0.3-2.1,0.7-2.9,1.1c-0.8,0.4-1.5,0.8-2.1,1.1
		c-0.6,0.3-1,0.5-1.2,0.5c-0.2,0-0.3,0-0.5-0.1c-0.1-0.1-0.3-0.2-0.4-0.4c-0.1-0.2-0.2-0.4-0.2-0.7c0-0.3-0.1-0.6-0.1-0.9
		c0-0.6,0-1,0.1-1.4c0.1-0.3,0.3-0.6,0.6-0.9c0.3-0.3,0.8-0.6,1.6-1c0.8-0.4,1.6-0.8,2.6-1.1c1-0.3,2.1-0.6,3.2-0.8
		c1.2-0.2,2.3-0.3,3.5-0.3c2.2,0,4.1,0.3,5.6,0.8c1.5,0.5,2.8,1.2,3.8,2.2c1,1,1.7,2.2,2.1,3.6c0.4,1.4,0.6,3.1,0.6,5V172z
		 M604.7,157.9h-4.8c-1.5,0-2.9,0.1-4,0.4c-1.1,0.3-2.1,0.6-2.8,1.2s-1.3,1.1-1.7,1.8s-0.5,1.5-0.5,2.5c0,1.6,0.5,2.9,1.5,3.8
		c1,0.9,2.4,1.4,4.3,1.4c1.5,0,2.9-0.4,4.1-1.1c1.3-0.8,2.6-1.9,4-3.5V157.9z"/>
	<path class="st5" d="M646.8,140.3c0.7,0,1.2,0.2,1.4,0.5c0.3,0.3,0.4,0.8,0.4,1.4v29.8c0,0.2,0,0.3-0.1,0.5
		c-0.1,0.1-0.2,0.2-0.5,0.3s-0.5,0.2-0.9,0.2c-0.4,0-0.8,0.1-1.3,0.1c-0.6,0-1,0-1.4-0.1c-0.4,0-0.7-0.1-0.9-0.2
		c-0.2-0.1-0.4-0.2-0.5-0.3c-0.1-0.1-0.1-0.3-0.1-0.5v-27H627v17.2c0,2.1,0.3,3.7,0.9,4.8c0.6,1.1,1.7,1.6,3.4,1.6
		c0.5,0,1-0.1,1.4-0.2s0.8-0.2,1.1-0.3c0.3-0.1,0.6-0.2,0.8-0.3c0.2-0.1,0.4-0.2,0.6-0.2c0.1,0,0.2,0,0.3,0.1
		c0.1,0.1,0.2,0.2,0.2,0.3c0.1,0.2,0.1,0.4,0.2,0.6c0,0.3,0.1,0.6,0.1,1c0,0.7,0,1.2-0.1,1.6c-0.1,0.4-0.2,0.7-0.4,0.9
		c-0.2,0.2-0.5,0.4-0.8,0.5c-0.4,0.2-0.8,0.3-1.2,0.4c-0.5,0.1-1,0.2-1.5,0.3s-1,0.1-1.6,0.1c-1.6,0-3-0.2-4.1-0.6s-2.1-1.1-2.8-1.9
		c-0.7-0.9-1.3-1.9-1.6-3.2c-0.3-1.3-0.5-2.9-0.5-4.6v-18H617c-0.3,0-0.6-0.2-0.8-0.5c-0.2-0.4-0.3-1-0.3-1.8c0-0.4,0-0.8,0.1-1.1
		c0.1-0.3,0.1-0.5,0.2-0.7c0.1-0.2,0.2-0.3,0.4-0.4c0.1-0.1,0.3-0.1,0.5-0.1h4.3V133c0-0.2,0-0.3,0.1-0.4c0.1-0.1,0.2-0.3,0.4-0.4
		c0.2-0.1,0.5-0.2,0.9-0.2c0.4,0,0.8-0.1,1.4-0.1c0.6,0,1,0,1.4,0.1c0.4,0,0.6,0.1,0.9,0.2s0.4,0.2,0.4,0.4c0.1,0.1,0.1,0.3,0.1,0.4
		v7.3H646.8z M649.2,130.8c0,1.3-0.3,2.2-0.8,2.7c-0.5,0.5-1.4,0.7-2.8,0.7c-1.3,0-2.2-0.2-2.7-0.7c-0.5-0.5-0.7-1.4-0.7-2.6
		c0-1.3,0.2-2.2,0.8-2.7c0.5-0.5,1.4-0.7,2.8-0.7c1.3,0,2.2,0.2,2.7,0.7C649,128.6,649.2,129.5,649.2,130.8z"/>
	<path class="st5" d="M684.2,141.1c0,0.1,0,0.2,0,0.3c0,0.1,0,0.2-0.1,0.3c0,0.1-0.1,0.2-0.1,0.4s-0.1,0.3-0.1,0.4l-10.5,29.2
		c-0.1,0.3-0.2,0.5-0.4,0.6c-0.1,0.2-0.4,0.3-0.7,0.4s-0.7,0.2-1.1,0.2s-1,0.1-1.7,0.1s-1.3,0-1.7-0.1c-0.5,0-0.8-0.1-1.1-0.2
		c-0.3-0.1-0.5-0.2-0.7-0.4c-0.2-0.2-0.3-0.4-0.4-0.6l-10.5-29.2c-0.1-0.3-0.2-0.5-0.2-0.7c-0.1-0.2-0.1-0.4-0.1-0.5
		c0-0.1,0-0.2,0-0.3c0-0.2,0-0.3,0.1-0.5s0.2-0.2,0.5-0.3c0.2-0.1,0.5-0.1,0.9-0.2c0.4,0,0.8,0,1.3,0c0.7,0,1.2,0,1.6,0.1
		c0.4,0,0.7,0.1,0.9,0.2c0.2,0.1,0.4,0.2,0.5,0.3c0.1,0.1,0.2,0.3,0.3,0.5l8.7,25.4l0.1,0.4l0.1-0.4l8.6-25.4c0-0.2,0.1-0.4,0.2-0.5
		c0.1-0.1,0.3-0.3,0.5-0.3c0.2-0.1,0.5-0.2,0.9-0.2s0.9-0.1,1.5-0.1c0.5,0,1,0,1.3,0c0.3,0,0.6,0.1,0.8,0.2c0.2,0.1,0.3,0.2,0.4,0.3
		C684.2,140.8,684.2,140.9,684.2,141.1z"/>
	<path class="st5" d="M716.2,155.2c0,0.9-0.2,1.5-0.7,1.9c-0.4,0.4-1,0.6-1.5,0.6h-20.3c0,1.7,0.2,3.2,0.5,4.6
		c0.3,1.4,0.9,2.5,1.7,3.5c0.8,1,1.8,1.7,3.1,2.3c1.3,0.5,2.9,0.8,4.7,0.8c1.5,0,2.8-0.1,3.9-0.4c1.1-0.2,2.1-0.5,3-0.8
		c0.8-0.3,1.5-0.6,2.1-0.8c0.5-0.2,0.9-0.4,1.2-0.4c0.2,0,0.3,0,0.4,0.1c0.1,0.1,0.2,0.2,0.3,0.4c0.1,0.2,0.1,0.4,0.2,0.7
		c0,0.3,0.1,0.6,0.1,1c0,0.3,0,0.6,0,0.8c0,0.2-0.1,0.4-0.1,0.6s-0.1,0.3-0.2,0.5c-0.1,0.1-0.2,0.3-0.3,0.4
		c-0.1,0.1-0.5,0.3-1.1,0.6s-1.4,0.6-2.4,0.8c-1,0.3-2.1,0.5-3.4,0.7c-1.3,0.2-2.7,0.3-4.1,0.3c-2.5,0-4.7-0.4-6.6-1.1
		c-1.9-0.7-3.5-1.8-4.8-3.1c-1.3-1.4-2.3-3.1-2.9-5.2c-0.7-2.1-1-4.5-1-7.3c0-2.6,0.3-5,1-7.1s1.7-3.9,3-5.4
		c1.3-1.5,2.8-2.6,4.7-3.4c1.8-0.8,3.9-1.2,6.1-1.2c2.4,0,4.5,0.4,6.2,1.2c1.7,0.8,3.1,1.8,4.2,3.1s1.9,2.8,2.4,4.6
		c0.5,1.8,0.8,3.7,0.8,5.7V155.2z M710.5,153.6c0.1-3-0.6-5.3-2-7s-3.4-2.5-6.2-2.5c-1.4,0-2.6,0.3-3.7,0.8
		c-1.1,0.5-1.9,1.2-2.6,2.1s-1.3,1.9-1.7,3c-0.4,1.2-0.6,2.4-0.7,3.6H710.5z"/>
</g>
<g>
	<path class="st5" d="M328.5,259.5c0,2.7-0.4,5.1-1.2,7.2c-0.8,2.1-1.9,3.9-3.4,5.4s-3.2,2.6-5.3,3.3c-2.1,0.8-4.5,1.1-7.1,1.1
		c-2.4,0-4.7-0.4-6.7-1.1c-2-0.7-3.7-1.7-5.2-3.1c-1.4-1.4-2.5-3.1-3.3-5.2c-0.8-2.1-1.2-4.5-1.2-7.2v-27.5c0-0.2,0-0.3,0.1-0.5
		c0.1-0.1,0.3-0.2,0.5-0.3c0.2-0.1,0.5-0.1,0.9-0.2c0.4-0.1,0.8-0.1,1.4-0.1c0.5,0,1,0,1.4,0.1c0.4,0.1,0.7,0.1,0.9,0.2
		c0.2,0.1,0.4,0.2,0.5,0.3c0.1,0.1,0.1,0.3,0.1,0.5v26.7c0,2.1,0.3,3.8,0.8,5.4c0.5,1.5,1.2,2.8,2.2,3.8c0.9,1,2.1,1.8,3.4,2.3
		c1.3,0.5,2.8,0.8,4.5,0.8c1.7,0,3.2-0.3,4.6-0.8c1.3-0.5,2.5-1.3,3.4-2.3c0.9-1,1.6-2.2,2.1-3.7c0.5-1.5,0.7-3.2,0.7-5.2v-27
		c0-0.2,0-0.3,0.1-0.5c0.1-0.1,0.3-0.2,0.5-0.3c0.2-0.1,0.5-0.1,0.9-0.2c0.4-0.1,0.8-0.1,1.4-0.1c0.5,0,1,0,1.4,0.1
		c0.4,0.1,0.7,0.1,0.9,0.2c0.2,0.1,0.4,0.2,0.5,0.3s0.2,0.3,0.2,0.5V259.5z"/>
	<path class="st5" d="M366,275c0,0.2,0,0.3-0.1,0.5c-0.1,0.1-0.2,0.2-0.4,0.3s-0.5,0.2-0.9,0.2c-0.4,0-0.8,0.1-1.4,0.1
		c-0.6,0-1,0-1.4-0.1c-0.4,0-0.6-0.1-0.9-0.2s-0.4-0.2-0.4-0.3c-0.1-0.1-0.1-0.3-0.1-0.5v-18c0-1.8-0.1-3.2-0.4-4.2s-0.7-2-1.2-2.8
		c-0.5-0.8-1.2-1.4-2-1.8c-0.8-0.4-1.8-0.6-2.9-0.6c-1.4,0-2.8,0.5-4.2,1.5c-1.4,1-2.9,2.5-4.4,4.4V275c0,0.2,0,0.3-0.1,0.5
		c-0.1,0.1-0.2,0.2-0.4,0.3s-0.5,0.2-0.9,0.2c-0.4,0-0.8,0.1-1.4,0.1c-0.5,0-1,0-1.4-0.1c-0.4,0-0.7-0.1-0.9-0.2
		c-0.2-0.1-0.4-0.2-0.4-0.3c-0.1-0.1-0.1-0.3-0.1-0.5v-30.8c0-0.2,0-0.3,0.1-0.5c0.1-0.1,0.2-0.2,0.4-0.3s0.5-0.2,0.8-0.2
		c0.3,0,0.7-0.1,1.3-0.1c0.5,0,0.9,0,1.2,0.1c0.3,0,0.6,0.1,0.8,0.2c0.2,0.1,0.3,0.2,0.4,0.3c0.1,0.1,0.1,0.3,0.1,0.5v4.1
		c1.7-1.9,3.5-3.4,5.2-4.3c1.7-0.9,3.5-1.4,5.2-1.4c2.1,0,3.8,0.3,5.2,1c1.4,0.7,2.5,1.6,3.4,2.8c0.9,1.2,1.5,2.5,1.9,4.1
		c0.4,1.6,0.6,3.4,0.6,5.6V275z"/>
	<path class="st5" d="M382.5,233.9c0,1.3-0.3,2.2-0.8,2.7c-0.5,0.5-1.4,0.7-2.8,0.7c-1.3,0-2.2-0.2-2.7-0.7
		c-0.5-0.5-0.7-1.4-0.7-2.6c0-1.3,0.3-2.2,0.8-2.7c0.5-0.5,1.4-0.7,2.8-0.7c1.3,0,2.2,0.2,2.7,0.7
		C382.3,231.7,382.5,232.6,382.5,233.9z M381.9,275c0,0.2,0,0.3-0.1,0.5c-0.1,0.1-0.2,0.2-0.4,0.3s-0.5,0.2-0.9,0.2
		c-0.4,0-0.8,0.1-1.4,0.1c-0.5,0-1,0-1.4-0.1c-0.4,0-0.7-0.1-0.9-0.2c-0.2-0.1-0.4-0.2-0.4-0.3c-0.1-0.1-0.1-0.3-0.1-0.5v-30.8
		c0-0.2,0-0.3,0.1-0.4c0.1-0.1,0.2-0.3,0.4-0.3c0.2-0.1,0.5-0.2,0.9-0.2c0.4,0,0.8-0.1,1.4-0.1c0.6,0,1,0,1.4,0.1
		c0.4,0,0.6,0.1,0.9,0.2c0.2,0.1,0.4,0.2,0.4,0.3c0.1,0.1,0.1,0.3,0.1,0.4V275z"/>
	<path class="st5" d="M417.6,244.2c0,0.1,0,0.2,0,0.3c0,0.1,0,0.2-0.1,0.3c0,0.1-0.1,0.2-0.1,0.4s-0.1,0.3-0.1,0.4l-10.5,29.2
		c-0.1,0.3-0.2,0.5-0.4,0.6c-0.1,0.2-0.4,0.3-0.7,0.4c-0.3,0.1-0.7,0.2-1.1,0.2c-0.5,0-1,0.1-1.7,0.1c-0.7,0-1.3,0-1.7-0.1
		c-0.5,0-0.8-0.1-1.1-0.2c-0.3-0.1-0.5-0.2-0.7-0.4c-0.2-0.2-0.3-0.4-0.4-0.6l-10.5-29.2c-0.1-0.3-0.2-0.5-0.2-0.7
		c-0.1-0.2-0.1-0.4-0.1-0.5c0-0.1,0-0.2,0-0.3c0-0.2,0-0.3,0.1-0.5c0.1-0.1,0.2-0.2,0.5-0.3c0.2-0.1,0.5-0.1,0.9-0.2
		c0.4,0,0.8,0,1.3,0c0.7,0,1.2,0,1.6,0.1c0.4,0,0.7,0.1,0.9,0.2c0.2,0.1,0.4,0.2,0.5,0.3c0.1,0.1,0.2,0.3,0.3,0.5l8.7,25.4l0.1,0.4
		l0.1-0.4l8.6-25.4c0-0.2,0.1-0.4,0.2-0.5c0.1-0.1,0.3-0.3,0.5-0.3c0.2-0.1,0.5-0.2,0.9-0.2c0.4,0,0.9-0.1,1.5-0.1c0.5,0,1,0,1.3,0
		c0.3,0,0.6,0.1,0.8,0.2c0.2,0.1,0.3,0.2,0.4,0.3C417.5,243.9,417.6,244,417.6,244.2z"/>
	<path class="st5" d="M449.5,258.3c0,0.9-0.2,1.5-0.7,1.9c-0.4,0.4-1,0.6-1.5,0.6h-20.3c0,1.7,0.2,3.2,0.5,4.6
		c0.3,1.4,0.9,2.5,1.7,3.5c0.8,1,1.8,1.7,3.1,2.3c1.3,0.5,2.9,0.8,4.7,0.8c1.5,0,2.8-0.1,3.9-0.4c1.1-0.2,2.1-0.5,3-0.8
		c0.8-0.3,1.5-0.6,2.1-0.8c0.5-0.2,0.9-0.4,1.2-0.4c0.2,0,0.3,0,0.4,0.1c0.1,0.1,0.2,0.2,0.3,0.4c0.1,0.2,0.1,0.4,0.2,0.7
		c0,0.3,0.1,0.6,0.1,1c0,0.3,0,0.6,0,0.8c0,0.2-0.1,0.4-0.1,0.6s-0.1,0.3-0.2,0.5c-0.1,0.1-0.2,0.3-0.3,0.4
		c-0.1,0.1-0.5,0.3-1.1,0.6s-1.4,0.6-2.4,0.8c-1,0.3-2.1,0.5-3.4,0.7c-1.3,0.2-2.7,0.3-4.1,0.3c-2.5,0-4.7-0.4-6.6-1.1
		s-3.5-1.8-4.8-3.1c-1.3-1.4-2.3-3.1-2.9-5.2c-0.7-2.1-1-4.5-1-7.3c0-2.6,0.3-5,1-7.1c0.7-2.1,1.7-3.9,3-5.4
		c1.3-1.5,2.8-2.6,4.7-3.4c1.8-0.8,3.9-1.2,6.1-1.2c2.4,0,4.5,0.4,6.2,1.2c1.7,0.8,3.1,1.8,4.2,3.1s1.9,2.8,2.4,4.6
		c0.5,1.8,0.8,3.7,0.8,5.7V258.3z M443.8,256.6c0.1-3-0.6-5.3-2-7s-3.4-2.5-6.2-2.5c-1.4,0-2.6,0.3-3.7,0.8
		c-1.1,0.5-1.9,1.2-2.6,2.1c-0.7,0.9-1.3,1.9-1.7,3c-0.4,1.2-0.6,2.4-0.7,3.6H443.8z"/>
	<path class="st5" d="M476.1,246.3c0,0.5,0,0.9,0,1.3s-0.1,0.6-0.1,0.8c-0.1,0.2-0.2,0.3-0.3,0.4s-0.2,0.2-0.4,0.2s-0.4-0.1-0.7-0.2
		s-0.6-0.2-0.9-0.3s-0.7-0.2-1.1-0.3c-0.4-0.1-0.9-0.1-1.3-0.1c-0.6,0-1.1,0.1-1.7,0.3c-0.5,0.2-1.1,0.6-1.7,1.1s-1.2,1.2-1.9,2.1
		c-0.7,0.9-1.4,1.9-2.2,3.2V275c0,0.2,0,0.3-0.1,0.5c-0.1,0.1-0.2,0.2-0.4,0.3s-0.5,0.2-0.9,0.2c-0.4,0-0.8,0.1-1.4,0.1
		c-0.5,0-1,0-1.4-0.1c-0.4,0-0.7-0.1-0.9-0.2c-0.2-0.1-0.4-0.2-0.4-0.3c-0.1-0.1-0.1-0.3-0.1-0.5v-30.8c0-0.2,0-0.3,0.1-0.5
		c0.1-0.1,0.2-0.2,0.4-0.3s0.5-0.2,0.8-0.2s0.7-0.1,1.3-0.1c0.5,0,0.9,0,1.2,0.1s0.6,0.1,0.8,0.2c0.2,0.1,0.3,0.2,0.4,0.3
		c0.1,0.1,0.1,0.3,0.1,0.5v4.5c0.8-1.2,1.6-2.2,2.4-3c0.7-0.8,1.4-1.4,2.1-1.8c0.7-0.4,1.3-0.8,2-0.9c0.6-0.2,1.3-0.3,2-0.3
		c0.3,0,0.6,0,1,0.1s0.8,0.1,1.2,0.2c0.4,0.1,0.8,0.2,1.1,0.3c0.3,0.1,0.6,0.2,0.7,0.3c0.1,0.1,0.2,0.2,0.3,0.3
		c0,0.1,0.1,0.2,0.1,0.4c0,0.2,0.1,0.4,0.1,0.7C476.1,245.3,476.1,245.8,476.1,246.3z"/>
	<path class="st5" d="M500.6,266.6c0,1.6-0.3,3-0.9,4.2c-0.6,1.2-1.4,2.3-2.5,3.1c-1.1,0.8-2.3,1.5-3.8,1.9s-3.1,0.6-4.9,0.6
		c-1.1,0-2.1-0.1-3.1-0.3s-1.9-0.4-2.7-0.6s-1.5-0.5-2-0.8c-0.5-0.3-0.9-0.5-1.2-0.8c-0.3-0.2-0.4-0.5-0.5-1c-0.1-0.4-0.2-1-0.2-1.7
		c0-0.4,0-0.8,0.1-1.1c0-0.3,0.1-0.5,0.2-0.7c0.1-0.2,0.2-0.3,0.3-0.4c0.1-0.1,0.3-0.1,0.4-0.1c0.2,0,0.6,0.2,1.1,0.5s1.1,0.6,1.8,1
		c0.7,0.4,1.6,0.7,2.5,1c1,0.3,2.1,0.5,3.4,0.5c1,0,1.8-0.1,2.6-0.3c0.8-0.2,1.4-0.5,2-0.9c0.6-0.4,1-0.9,1.3-1.5
		c0.3-0.6,0.5-1.3,0.5-2.2c0-0.9-0.2-1.6-0.7-2.2c-0.4-0.6-1-1.1-1.8-1.6c-0.7-0.5-1.5-0.9-2.5-1.2c-0.9-0.4-1.9-0.7-2.8-1.1
		c-1-0.4-1.9-0.8-2.8-1.3c-0.9-0.5-1.7-1.1-2.5-1.8s-1.3-1.5-1.8-2.5s-0.7-2.2-0.7-3.5c0-1.2,0.2-2.4,0.7-3.5
		c0.5-1.1,1.2-2.1,2.1-2.9c0.9-0.8,2.1-1.5,3.5-2c1.4-0.5,3-0.8,4.9-0.8c0.8,0,1.6,0.1,2.5,0.2s1.6,0.3,2.2,0.5s1.2,0.4,1.7,0.7
		s0.8,0.5,1.1,0.6c0.2,0.2,0.4,0.3,0.5,0.5c0.1,0.1,0.1,0.3,0.2,0.5s0.1,0.4,0.1,0.6c0,0.3,0.1,0.6,0.1,0.9c0,0.4,0,0.7-0.1,1
		c0,0.3-0.1,0.5-0.2,0.7c-0.1,0.2-0.2,0.3-0.3,0.4c-0.1,0.1-0.2,0.1-0.4,0.1c-0.2,0-0.5-0.1-0.9-0.4c-0.4-0.3-0.9-0.5-1.5-0.8
		c-0.6-0.3-1.3-0.6-2.2-0.8c-0.8-0.3-1.8-0.4-2.9-0.4c-1,0-1.8,0.1-2.5,0.3c-0.7,0.2-1.3,0.5-1.8,0.9c-0.5,0.4-0.8,0.9-1.1,1.4
		c-0.2,0.5-0.4,1.1-0.4,1.8c0,0.9,0.2,1.6,0.7,2.2c0.5,0.6,1,1.1,1.8,1.6c0.7,0.5,1.6,0.9,2.5,1.2c0.9,0.4,1.9,0.7,2.9,1.1
		c1,0.4,1.9,0.8,2.9,1.3c0.9,0.5,1.8,1.1,2.5,1.7c0.7,0.7,1.3,1.5,1.8,2.5C500.4,264.2,500.6,265.3,500.6,266.6z"/>
	<path class="st5" d="M515,233.9c0,1.3-0.3,2.2-0.8,2.7c-0.5,0.5-1.4,0.7-2.8,0.7c-1.3,0-2.2-0.2-2.7-0.7c-0.5-0.5-0.7-1.4-0.7-2.6
		c0-1.3,0.2-2.2,0.8-2.7c0.5-0.5,1.4-0.7,2.8-0.7c1.3,0,2.2,0.2,2.7,0.7C514.7,231.7,515,232.6,515,233.9z M514.3,275
		c0,0.2,0,0.3-0.1,0.5c-0.1,0.1-0.2,0.2-0.4,0.3s-0.5,0.2-0.9,0.2c-0.4,0-0.8,0.1-1.4,0.1c-0.5,0-1,0-1.4-0.1
		c-0.4,0-0.7-0.1-0.9-0.2c-0.2-0.1-0.4-0.2-0.4-0.3c-0.1-0.1-0.1-0.3-0.1-0.5v-30.8c0-0.2,0-0.3,0.1-0.4c0.1-0.1,0.2-0.3,0.4-0.3
		c0.2-0.1,0.5-0.2,0.9-0.2c0.4,0,0.8-0.1,1.4-0.1c0.6,0,1,0,1.4,0.1c0.4,0,0.6,0.1,0.9,0.2c0.2,0.1,0.4,0.2,0.4,0.3
		c0.1,0.1,0.1,0.3,0.1,0.4V275z"/>
	<path class="st5" d="M540.8,272.8c0,0.7,0,1.2-0.1,1.6c-0.1,0.4-0.2,0.7-0.4,0.9c-0.2,0.2-0.5,0.4-0.8,0.5
		c-0.4,0.2-0.8,0.3-1.2,0.4c-0.5,0.1-1,0.2-1.5,0.3s-1,0.1-1.6,0.1c-1.6,0-3-0.2-4.1-0.6s-2.1-1.1-2.8-1.9c-0.7-0.9-1.3-1.9-1.6-3.2
		c-0.3-1.3-0.5-2.9-0.5-4.6v-18h-4.3c-0.3,0-0.6-0.2-0.8-0.5c-0.2-0.4-0.3-1-0.3-1.8c0-0.4,0-0.8,0.1-1.1c0.1-0.3,0.1-0.5,0.2-0.7
		c0.1-0.2,0.2-0.3,0.4-0.4c0.1-0.1,0.3-0.1,0.5-0.1h4.3v-7.3c0-0.2,0-0.3,0.1-0.4c0.1-0.1,0.2-0.3,0.4-0.4c0.2-0.1,0.5-0.2,0.9-0.2
		c0.4,0,0.8-0.1,1.4-0.1c0.6,0,1,0,1.4,0.1c0.4,0,0.6,0.1,0.9,0.2s0.4,0.2,0.4,0.4c0.1,0.1,0.1,0.3,0.1,0.4v7.3h7.9
		c0.2,0,0.3,0,0.5,0.1c0.1,0.1,0.3,0.2,0.4,0.4c0.1,0.2,0.2,0.4,0.2,0.7c0,0.3,0.1,0.7,0.1,1.1c0,0.8-0.1,1.4-0.3,1.8
		c-0.2,0.4-0.5,0.5-0.8,0.5h-7.9v17.2c0,2.1,0.3,3.7,0.9,4.8c0.6,1.1,1.7,1.6,3.4,1.6c0.5,0,1-0.1,1.4-0.2s0.8-0.2,1.1-0.3
		c0.3-0.1,0.6-0.2,0.8-0.3c0.2-0.1,0.4-0.2,0.6-0.2c0.1,0,0.2,0,0.3,0.1c0.1,0.1,0.2,0.2,0.2,0.3c0.1,0.2,0.1,0.4,0.2,0.6
		C540.7,272,540.8,272.4,540.8,272.8z"/>
	<path class="st5" d="M562.2,275.9l-4.1,11.3c-0.1,0.4-0.5,0.6-1,0.8c-0.6,0.2-1.4,0.3-2.5,0.3c-0.6,0-1.1,0-1.4-0.1
		c-0.4-0.1-0.6-0.2-0.8-0.3s-0.3-0.3-0.3-0.5c0-0.2,0-0.5,0.2-0.8l4.2-10.7c-0.2-0.1-0.4-0.2-0.6-0.4s-0.3-0.4-0.4-0.6l-11-29.4
		c-0.2-0.5-0.3-0.9-0.3-1.1s0.1-0.5,0.3-0.6c0.2-0.2,0.5-0.3,0.9-0.3c0.4-0.1,1-0.1,1.6-0.1s1.2,0,1.6,0.1s0.7,0.1,0.9,0.2
		c0.2,0.1,0.4,0.2,0.5,0.4c0.1,0.2,0.2,0.4,0.3,0.7l8.8,24.7h0.1l8.5-24.8c0.1-0.4,0.3-0.7,0.5-0.8c0.2-0.1,0.5-0.2,0.9-0.3
		c0.4-0.1,0.9-0.1,1.7-0.1c0.6,0,1.2,0,1.6,0.1c0.4,0.1,0.7,0.2,0.9,0.3c0.2,0.2,0.3,0.4,0.3,0.6s-0.1,0.6-0.2,1L562.2,275.9z"/>
</g>
<g>
	<path class="st5" d="M104.6,753c-1.4,1.5-2.8,2.6-4.4,3.4c-1.5,0.8-3.1,1.2-4.6,1.3c-1.6,0.1-3.1-0.2-4.7-0.9s-3.1-1.7-4.6-3.1
		c-1.4-1.3-2.4-2.6-3.2-4c-0.8-1.4-1.2-2.9-1.3-4.4c-0.1-1.5,0.2-3,0.8-4.6c0.6-1.6,1.7-3.1,3.1-4.6l14.1-15.4
		c0.1-0.1,0.2-0.2,0.3-0.2c0.1,0,0.3,0,0.4,0.1c0.2,0.1,0.4,0.2,0.6,0.3c0.2,0.2,0.5,0.4,0.8,0.7c0.3,0.3,0.6,0.5,0.7,0.8
		s0.3,0.4,0.4,0.6c0.1,0.2,0.1,0.3,0.1,0.4c0,0.1-0.1,0.2-0.2,0.3l-13.8,15c-1.1,1.1-1.8,2.3-2.3,3.4c-0.5,1.1-0.8,2.2-0.8,3.3
		c0,1.1,0.2,2.1,0.7,3c0.5,1,1.2,1.9,2.1,2.7c1,0.9,1.9,1.5,2.9,1.9c1,0.4,2,0.6,3.1,0.5c1-0.1,2.1-0.4,3.1-1c1-0.6,2.1-1.4,3.1-2.5
		l13.9-15.1c0.1-0.1,0.2-0.2,0.3-0.2c0.1,0,0.3,0,0.4,0.1c0.2,0.1,0.4,0.2,0.6,0.4c0.2,0.2,0.5,0.4,0.8,0.7c0.3,0.3,0.5,0.5,0.7,0.8
		c0.2,0.2,0.3,0.4,0.4,0.6c0.1,0.2,0.1,0.3,0.1,0.4c0,0.1-0.1,0.2-0.2,0.3L104.6,753z"/>
	<path class="st5" d="M129.3,779.8c-1.1,1.2-2.2,2-3.5,2.5c-1.3,0.5-2.6,0.7-3.9,0.7c-1.3-0.1-2.7-0.4-4-1c-1.3-0.6-2.6-1.5-3.8-2.6
		c-0.8-0.8-1.5-1.5-2.1-2.3c-0.6-0.8-1.1-1.5-1.4-2.3c-0.4-0.7-0.6-1.4-0.8-1.9s-0.3-1-0.3-1.3c0-0.3,0.1-0.6,0.2-0.9
		c0.1-0.3,0.4-0.6,0.8-1c0.3-0.3,0.5-0.5,0.7-0.7s0.4-0.3,0.5-0.3c0.2-0.1,0.3-0.1,0.4-0.1c0.1,0,0.2,0.1,0.3,0.2
		c0.2,0.2,0.3,0.5,0.5,1c0.1,0.5,0.3,1.1,0.6,1.9c0.3,0.7,0.7,1.5,1.2,2.4c0.5,0.9,1.2,1.8,2.2,2.6c0.7,0.7,1.5,1.2,2.2,1.5
		c0.8,0.4,1.5,0.6,2.3,0.6c0.7,0,1.5-0.1,2.2-0.4c0.7-0.3,1.3-0.8,1.9-1.4c0.6-0.7,1-1.4,1.2-2.2c0.1-0.8,0.1-1.6-0.1-2.5
		c-0.2-0.9-0.5-1.8-0.8-2.7c-0.4-0.9-0.8-1.9-1.2-2.8c-0.4-1-0.8-2-1-3c-0.3-1-0.5-2-0.5-3c0-1,0.1-2,0.5-3.1c0.3-1,1-2,1.9-3
		c1-1,2-1.8,3.1-2.2c1.1-0.5,2.3-0.7,3.4-0.6c1.2,0.1,2.4,0.4,3.5,0.9c1.2,0.6,2.3,1.3,3.4,2.3c0.5,0.5,1.1,1.1,1.5,1.7
		c0.5,0.6,0.9,1.2,1.2,1.8c0.3,0.6,0.6,1.2,0.8,1.7c0.2,0.6,0.3,0.9,0.3,1.2c0,0.2,0,0.4,0,0.5c0,0.1-0.1,0.2-0.2,0.4
		c-0.1,0.1-0.2,0.3-0.3,0.4c-0.1,0.2-0.3,0.4-0.5,0.6c-0.2,0.2-0.4,0.4-0.6,0.6c-0.2,0.2-0.4,0.3-0.5,0.4c-0.1,0.1-0.3,0.1-0.4,0.1
		c-0.1,0-0.2-0.1-0.3-0.1c-0.1-0.1-0.3-0.4-0.4-0.9c-0.1-0.5-0.3-1-0.5-1.6c-0.2-0.6-0.6-1.3-1-2c-0.4-0.7-1-1.4-1.7-2.1
		c-0.7-0.6-1.4-1.1-2.1-1.4c-0.7-0.3-1.3-0.4-1.9-0.4c-0.6,0-1.2,0.1-1.7,0.4c-0.6,0.3-1,0.6-1.5,1.1c-0.6,0.7-1,1.4-1.2,2.2
		c-0.1,0.8-0.1,1.6,0.1,2.5c0.2,0.9,0.5,1.8,0.8,2.7c0.4,0.9,0.8,1.9,1.2,2.9c0.4,1,0.8,2,1.1,3c0.3,1,0.5,2,0.5,3
		c0,1-0.1,2-0.4,3.1C130.8,777.8,130.2,778.8,129.3,779.8z"/>
	<path class="st5" d="M152.7,813.3c-0.1,0.1-0.2,0.2-0.3,0.2c-0.1,0-0.3,0-0.4-0.1c-0.2-0.1-0.4-0.2-0.6-0.4
		c-0.2-0.2-0.5-0.4-0.8-0.7c-0.3-0.3-0.6-0.6-0.8-0.8c-0.2-0.2-0.3-0.4-0.4-0.6c-0.1-0.2-0.1-0.3-0.1-0.4c0-0.1,0.1-0.2,0.2-0.3
		l10.1-11l-11.3-10.4l-10.1,11c-0.1,0.1-0.2,0.2-0.3,0.2c-0.1,0-0.3,0-0.4-0.1c-0.2-0.1-0.4-0.2-0.6-0.4s-0.5-0.4-0.8-0.7
		c-0.3-0.3-0.6-0.5-0.7-0.8c-0.2-0.2-0.3-0.4-0.4-0.6c-0.1-0.2-0.1-0.3-0.1-0.4c0-0.1,0.1-0.2,0.2-0.3l21.9-23.8
		c0.1-0.1,0.2-0.2,0.3-0.2c0.1,0,0.3,0,0.4,0.1c0.2,0.1,0.4,0.2,0.6,0.4c0.2,0.2,0.5,0.4,0.8,0.7c0.3,0.3,0.6,0.6,0.8,0.8
		c0.2,0.2,0.3,0.4,0.4,0.6c0.1,0.2,0.1,0.3,0.1,0.4c0,0.1-0.1,0.2-0.2,0.3l-9.1,9.9l11.3,10.4l9.1-9.9c0.1-0.1,0.2-0.2,0.3-0.2
		c0.1,0,0.3,0,0.4,0.1c0.2,0.1,0.4,0.2,0.6,0.3c0.2,0.2,0.5,0.4,0.8,0.7c0.3,0.3,0.5,0.5,0.7,0.8c0.2,0.2,0.3,0.4,0.4,0.6
		c0.1,0.2,0.1,0.3,0.1,0.4c0,0.1-0.1,0.2-0.2,0.3L152.7,813.3z"/>
	<path class="st5" d="M169.4,828.7c-0.1,0.1-0.2,0.2-0.3,0.2c-0.1,0-0.3,0-0.4-0.1c-0.2-0.1-0.4-0.2-0.6-0.4
		c-0.2-0.2-0.5-0.4-0.8-0.7c-0.3-0.3-0.6-0.5-0.7-0.8c-0.2-0.2-0.3-0.4-0.4-0.6c-0.1-0.2-0.1-0.3-0.1-0.4c0-0.1,0.1-0.2,0.2-0.3
		l21.9-23.8c0.1-0.1,0.2-0.2,0.3-0.2c0.1,0,0.3,0,0.5,0.1c0.2,0.1,0.4,0.2,0.6,0.4c0.2,0.2,0.5,0.4,0.8,0.6c0.3,0.3,0.6,0.6,0.8,0.8
		s0.3,0.4,0.4,0.6c0.1,0.2,0.1,0.3,0.1,0.4c0,0.1-0.1,0.2-0.2,0.3L169.4,828.7z"/>
	<path class="st5" d="M199.4,856.3c-0.1,0.1-0.2,0.2-0.3,0.2c-0.1,0-0.3,0-0.4,0c-0.2-0.1-0.4-0.2-0.6-0.4c-0.3-0.2-0.6-0.5-1-0.8
		c-0.3-0.3-0.6-0.6-0.8-0.8c-0.2-0.2-0.3-0.4-0.4-0.6c-0.1-0.2-0.1-0.3-0.1-0.5c0-0.2,0.1-0.4,0.2-0.5l3.1-7.9
		c0.3-0.9,0.6-1.8,0.9-2.6c0.2-0.8,0.3-1.6,0.3-2.4c0-0.8-0.2-1.5-0.5-2.2c-0.3-0.7-0.9-1.4-1.6-2.1l-2.2-2l-9.7,10.5
		c-0.1,0.1-0.2,0.2-0.3,0.2c-0.1,0-0.3,0-0.4-0.1c-0.2-0.1-0.4-0.2-0.6-0.3c-0.2-0.2-0.5-0.4-0.8-0.7c-0.3-0.3-0.6-0.6-0.8-0.8
		c-0.2-0.2-0.3-0.4-0.4-0.6c-0.1-0.2-0.1-0.3-0.1-0.4c0-0.1,0.1-0.2,0.2-0.3l21.1-22.9c0.5-0.5,0.9-0.7,1.4-0.7
		c0.4,0,0.8,0.2,1.1,0.5l5.3,4.8c0.6,0.6,1.1,1.1,1.5,1.5c0.4,0.4,0.7,0.8,1,1.1c0.8,1,1.4,2.1,1.8,3.1c0.4,1,0.6,2.1,0.6,3.1
		c0,1-0.2,2-0.6,2.9c-0.4,0.9-1,1.8-1.8,2.7c-0.8,0.8-1.6,1.5-2.4,1.9c-0.8,0.5-1.7,0.7-2.6,0.9c-0.9,0.1-1.8,0.1-2.7-0.1
		c-0.9-0.2-1.9-0.5-2.8-0.9c0.2,0.6,0.4,1.1,0.5,1.7c0.1,0.6,0.1,1.2,0,1.8c-0.1,0.6-0.2,1.3-0.4,2.1c-0.2,0.7-0.5,1.5-0.8,2.4
		l-2.8,7.5c-0.2,0.6-0.4,1.1-0.5,1.3C199.6,856,199.5,856.2,199.4,856.3z M210.4,834.3c0.9-1,1.4-2,1.6-3.1c0.2-1.1-0.1-2.2-0.8-3.5
		c-0.2-0.4-0.5-0.8-0.9-1.2s-0.9-0.9-1.5-1.5l-2.8-2.6l-7.7,8.3l3.2,3c0.9,0.8,1.7,1.4,2.5,1.8c0.8,0.4,1.6,0.6,2.4,0.6
		c0.8,0,1.5-0.1,2.2-0.5C209.3,835.4,209.9,834.9,210.4,834.3z"/>
	<path class="st5" d="M214.3,870c-0.1,0.1-0.2,0.2-0.3,0.2c-0.1,0-0.3,0-0.4-0.1c-0.2-0.1-0.4-0.2-0.6-0.4s-0.5-0.4-0.8-0.7
		c-0.3-0.3-0.6-0.5-0.7-0.8c-0.2-0.2-0.3-0.4-0.4-0.6c-0.1-0.2-0.1-0.3-0.1-0.4c0-0.1,0.1-0.2,0.2-0.3l21.9-23.8
		c0.1-0.1,0.2-0.2,0.3-0.2c0.1,0,0.3,0,0.5,0.1c0.2,0.1,0.4,0.2,0.6,0.4c0.2,0.2,0.5,0.4,0.8,0.6c0.3,0.3,0.6,0.6,0.8,0.8
		c0.2,0.2,0.3,0.4,0.4,0.6c0.1,0.2,0.1,0.3,0.1,0.4c0,0.1-0.1,0.2-0.2,0.3L214.3,870z"/>
	<path class="st5" d="M243.9,897.2c-0.1,0.1-0.2,0.2-0.3,0.2c-0.1,0-0.3,0-0.4,0c-0.2-0.1-0.4-0.2-0.6-0.4c-0.2-0.2-0.5-0.4-0.9-0.7
		c-0.4-0.4-0.8-0.8-1-1.1c-0.2-0.3-0.4-0.6-0.4-0.8c0-0.2-0.1-0.5,0-0.7l2.3-20.8L231,885.4c-0.1,0.1-0.2,0.2-0.3,0.2
		c-0.1,0-0.3,0-0.4-0.1c-0.2-0.1-0.4-0.2-0.6-0.4c-0.2-0.2-0.5-0.4-0.8-0.7c-0.3-0.3-0.6-0.5-0.7-0.8c-0.2-0.2-0.3-0.4-0.4-0.6
		c-0.1-0.2-0.1-0.3-0.1-0.4c0-0.1,0.1-0.2,0.2-0.3l21.9-23.8c0.1-0.1,0.2-0.2,0.3-0.2c0.1,0,0.3,0,0.4,0.1c0.2,0.1,0.4,0.2,0.6,0.4
		s0.5,0.4,0.8,0.7c0.3,0.3,0.6,0.6,0.8,0.8s0.3,0.4,0.4,0.6c0.1,0.2,0.1,0.3,0.1,0.4c0,0.1-0.1,0.2-0.2,0.3l-10.1,11l18.9-2.9
		c0.2,0,0.4-0.1,0.5,0c0.2,0,0.4,0.1,0.5,0.2c0.2,0.1,0.4,0.2,0.6,0.4c0.2,0.2,0.5,0.4,0.8,0.7c0.3,0.3,0.6,0.6,0.8,0.8
		c0.2,0.2,0.3,0.4,0.4,0.6c0.1,0.2,0.1,0.3,0.1,0.4c0,0.1-0.1,0.2-0.2,0.3c-0.2,0.2-0.3,0.3-0.6,0.4c-0.2,0.1-0.6,0.2-1.1,0.3
		l-17.2,2.3l-2,19.9c-0.1,0.5-0.2,0.9-0.2,1C244,897,243.9,897.1,243.9,897.2z"/>
	<path class="st5" d="M274,923.8c-0.2,0.4-0.3,0.7-0.5,0.8c-0.2,0.2-0.3,0.3-0.5,0.3c-0.2,0-0.4-0.1-0.7-0.3c-0.3-0.2-0.6-0.5-1-0.8
		c-0.4-0.4-0.7-0.7-0.9-0.9c-0.2-0.2-0.4-0.4-0.4-0.6c-0.1-0.2-0.1-0.3-0.1-0.4c0-0.1,0-0.3,0.1-0.4l3.4-8l-10.3-9.5l-7.5,4.1
		c-0.1,0.1-0.3,0.1-0.4,0.2c-0.1,0-0.3,0-0.5,0c-0.2-0.1-0.4-0.2-0.6-0.4c-0.2-0.2-0.5-0.4-0.9-0.8c-0.4-0.3-0.7-0.6-0.9-0.9
		s-0.3-0.5-0.3-0.6c0-0.2,0.1-0.3,0.2-0.5c0.2-0.2,0.4-0.3,0.8-0.5l29.5-15.3c0.2-0.1,0.4-0.1,0.5-0.2c0.2,0,0.3,0,0.6,0.1
		c0.2,0.1,0.4,0.2,0.7,0.5s0.6,0.5,1,0.8c0.4,0.4,0.7,0.7,1,1s0.4,0.5,0.6,0.7c0.1,0.2,0.2,0.4,0.2,0.6c0,0.2,0,0.4-0.1,0.5
		L274,923.8z M282.1,893.7L282.1,893.7l-15.6,8.4l8.6,7.9L282.1,893.7z"/>
</g>
<g>
	<path class="st5" d="M606.6,906.4c0.7,0.8,1.3,1.6,1.7,2.4c0.4,0.8,0.7,1.7,0.8,2.5c0.1,0.9,0.1,1.7,0,2.6
		c-0.1,0.9-0.4,1.7-0.8,2.6c-0.4,0.9-0.9,1.7-1.5,2.5c-0.6,0.8-1.4,1.6-2.3,2.5l-6.4,6c-0.3,0.3-0.7,0.4-1.1,0.5
		c-0.4,0-0.9-0.2-1.4-0.7l-20.5-21.9c-0.5-0.5-0.7-1-0.6-1.4c0.1-0.4,0.3-0.8,0.6-1.1l5.6-5.2c1.5-1.4,2.8-2.4,4-3
		c1.2-0.6,2.4-0.9,3.5-1c1.1-0.1,2.2,0.2,3.2,0.6c1,0.5,2,1.2,2.9,2.2c0.5,0.6,1,1.2,1.4,1.9c0.4,0.7,0.6,1.3,0.8,2.1
		c0.1,0.7,0.2,1.4,0.1,2.2c-0.1,0.7-0.3,1.5-0.6,2.2c0.8-0.5,1.6-0.9,2.5-1.1c0.9-0.2,1.8-0.3,2.7-0.1c0.9,0.1,1.8,0.4,2.7,0.9
		C605,905,605.9,905.6,606.6,906.4z M591.4,900c-0.6-0.6-1.1-1.1-1.8-1.4c-0.6-0.3-1.3-0.5-1.9-0.5c-0.7,0-1.4,0.2-2.1,0.5
		c-0.7,0.4-1.6,1-2.5,1.8l-3.4,3.1l7.4,8l3.7-3.5c0.8-0.8,1.4-1.5,1.7-2.2c0.3-0.7,0.5-1.4,0.5-2.1c0-0.7-0.2-1.4-0.5-2
		C592.3,901.2,591.9,900.6,591.4,900z M603.4,909.8c-0.7-0.7-1.4-1.3-2.2-1.6c-0.8-0.3-1.5-0.5-2.3-0.5c-0.8,0-1.6,0.3-2.5,0.7
		c-0.9,0.4-1.8,1.1-2.8,2.1l-3.9,3.6l8.1,8.7l4.7-4.4c0.7-0.7,1.3-1.4,1.7-2.1c0.4-0.7,0.6-1.4,0.7-2.2c0.1-0.7,0-1.5-0.2-2.2
		S604,910.5,603.4,909.8z"/>
	<path class="st5" d="M627.8,899c0.1,0.1,0.2,0.2,0.2,0.3c0,0.1,0,0.3-0.1,0.4c-0.1,0.2-0.2,0.4-0.4,0.6c-0.2,0.2-0.4,0.5-0.7,0.8
		c-0.3,0.3-0.6,0.5-0.8,0.7s-0.5,0.3-0.6,0.4c-0.2,0.1-0.3,0.1-0.4,0.1c-0.1,0-0.2-0.1-0.3-0.2l-22-23.6c-0.1-0.1-0.1-0.2-0.2-0.3
		c0-0.1,0-0.3,0.1-0.4c0.1-0.2,0.2-0.4,0.4-0.6c0.2-0.2,0.4-0.5,0.7-0.7c0.3-0.3,0.6-0.5,0.8-0.7c0.2-0.2,0.4-0.3,0.6-0.4
		c0.2-0.1,0.3-0.1,0.4-0.1c0.1,0,0.2,0.1,0.3,0.2L627.8,899z"/>
	<path class="st5" d="M659,868.7c0.4,0.2,0.6,0.4,0.8,0.5c0.2,0.2,0.2,0.3,0.2,0.5c0,0.2-0.1,0.4-0.3,0.6c-0.2,0.2-0.5,0.5-0.9,0.9
		c-0.4,0.4-0.7,0.6-1,0.8c-0.3,0.2-0.5,0.3-0.6,0.4c-0.2,0.1-0.3,0.1-0.4,0.1c-0.1,0-0.3-0.1-0.4-0.1l-7.7-4l-10.2,9.5l3.5,7.8
		c0.1,0.2,0.1,0.3,0.1,0.4c0,0.1,0,0.3-0.1,0.5c-0.1,0.2-0.2,0.4-0.4,0.6c-0.2,0.2-0.5,0.5-0.8,0.8c-0.4,0.3-0.7,0.6-0.9,0.8
		c-0.3,0.2-0.5,0.3-0.7,0.3s-0.3-0.1-0.5-0.3s-0.3-0.5-0.5-0.8L625,857.5c-0.1-0.2-0.1-0.4-0.1-0.5c0-0.2,0.1-0.3,0.2-0.5
		c0.1-0.2,0.3-0.4,0.5-0.7c0.2-0.2,0.5-0.6,0.9-0.9c0.4-0.4,0.8-0.7,1-0.9c0.3-0.2,0.5-0.4,0.7-0.5c0.2-0.1,0.4-0.1,0.6-0.1
		c0.2,0,0.4,0.1,0.5,0.2L659,868.7z M629.6,858.4L629.6,858.4l7.2,16.2l8.6-8L629.6,858.4z"/>
	<path class="st5" d="M677.8,840.4c1.1,1.2,1.8,2.4,2.2,3.7s0.5,2.6,0.4,3.9s-0.6,2.6-1.3,3.9c-0.7,1.3-1.7,2.5-2.9,3.6
		c-0.8,0.8-1.7,1.4-2.5,1.9c-0.8,0.5-1.6,0.9-2.4,1.2s-1.4,0.5-2,0.7c-0.6,0.1-1,0.2-1.3,0.2c-0.3,0-0.6-0.1-0.9-0.3
		c-0.3-0.2-0.6-0.5-1-0.8c-0.3-0.3-0.5-0.5-0.6-0.7c-0.1-0.2-0.2-0.4-0.3-0.6c-0.1-0.2-0.1-0.3,0-0.4c0-0.1,0.1-0.2,0.2-0.3
		c0.2-0.2,0.5-0.3,1.1-0.4c0.5-0.1,1.2-0.2,1.9-0.5c0.7-0.2,1.6-0.6,2.5-1c0.9-0.4,1.9-1.1,2.8-2c0.7-0.7,1.3-1.4,1.7-2.1
		c0.4-0.7,0.7-1.5,0.8-2.2c0.1-0.7,0-1.5-0.2-2.2c-0.2-0.7-0.7-1.4-1.3-2c-0.7-0.7-1.4-1.1-2.1-1.3c-0.8-0.2-1.6-0.2-2.5-0.1
		c-0.9,0.1-1.8,0.3-2.7,0.6c-1,0.3-1.9,0.6-2.9,1s-2,0.6-3,0.8c-1,0.2-2,0.3-3.1,0.3c-1,0-2-0.3-3-0.7c-1-0.4-2-1.1-2.9-2.1
		c-1-1-1.6-2.1-2-3.3c-0.4-1.2-0.5-2.3-0.3-3.5c0.2-1.2,0.6-2.3,1.2-3.5c0.7-1.1,1.5-2.2,2.6-3.2c0.5-0.5,1.1-1,1.8-1.4
		c0.6-0.4,1.3-0.8,1.9-1.1c0.6-0.3,1.2-0.5,1.8-0.7c0.6-0.2,1-0.2,1.2-0.2c0.2,0,0.4,0,0.5,0.1c0.1,0,0.2,0.1,0.3,0.2
		c0.1,0.1,0.3,0.2,0.4,0.3c0.2,0.1,0.3,0.3,0.6,0.6c0.2,0.2,0.4,0.4,0.5,0.6c0.1,0.2,0.3,0.4,0.3,0.5c0.1,0.2,0.1,0.3,0.1,0.4
		c0,0.1-0.1,0.2-0.2,0.3c-0.1,0.1-0.4,0.2-0.9,0.3c-0.5,0.1-1,0.2-1.7,0.4c-0.6,0.2-1.3,0.5-2.1,0.8c-0.8,0.4-1.5,0.9-2.2,1.6
		c-0.7,0.6-1.2,1.3-1.5,1.9c-0.3,0.7-0.5,1.3-0.6,1.9c0,0.6,0,1.2,0.3,1.8c0.2,0.6,0.6,1.1,1,1.6c0.6,0.7,1.3,1.1,2.1,1.3
		c0.8,0.2,1.6,0.2,2.5,0.1c0.9-0.1,1.8-0.3,2.8-0.6c1-0.3,2-0.6,2.9-1c1-0.3,2-0.6,3-0.9c1-0.2,2.1-0.3,3.1-0.3c1,0,2,0.3,3,0.7
		C675.9,838.7,676.8,839.4,677.8,840.4z"/>
	<path class="st5" d="M712.9,819.6c0.1,0.1,0.2,0.2,0.2,0.3c0,0.1,0,0.3-0.1,0.4c-0.1,0.2-0.2,0.4-0.4,0.6c-0.2,0.2-0.4,0.5-0.7,0.8
		c-0.3,0.3-0.6,0.5-0.8,0.7s-0.4,0.3-0.6,0.3c-0.2,0.1-0.3,0.1-0.4,0.1c-0.1,0-0.2-0.1-0.3-0.2l-10.2-10.9l-11.2,10.4l10.2,10.9
		c0.1,0.1,0.2,0.2,0.2,0.3c0,0.1,0,0.3-0.1,0.4c-0.1,0.2-0.2,0.4-0.4,0.6c-0.2,0.2-0.4,0.5-0.7,0.8c-0.3,0.3-0.6,0.5-0.8,0.7
		s-0.5,0.3-0.6,0.4c-0.2,0.1-0.3,0.1-0.4,0.1c-0.1,0-0.2-0.1-0.3-0.2l-22-23.6c-0.1-0.1-0.2-0.2-0.2-0.3c0-0.1,0-0.3,0.1-0.4
		c0.1-0.2,0.2-0.4,0.4-0.6c0.2-0.2,0.4-0.5,0.7-0.8c0.3-0.3,0.6-0.5,0.8-0.7c0.2-0.2,0.4-0.3,0.6-0.4c0.2-0.1,0.3-0.1,0.4-0.1
		c0.1,0,0.2,0.1,0.3,0.2l9.2,9.8l11.2-10.4l-9.2-9.8c-0.1-0.1-0.2-0.2-0.2-0.3c0-0.1,0-0.3,0.1-0.4c0.1-0.2,0.2-0.4,0.4-0.6
		c0.2-0.2,0.4-0.5,0.8-0.8c0.3-0.3,0.6-0.5,0.8-0.7c0.2-0.2,0.4-0.3,0.6-0.4c0.2-0.1,0.3-0.1,0.4-0.1c0.1,0,0.2,0.1,0.3,0.2
		L712.9,819.6z"/>
	<path class="st5" d="M744.1,789.3c0.4,0.2,0.6,0.4,0.8,0.5c0.2,0.2,0.2,0.3,0.2,0.5c0,0.2-0.1,0.4-0.3,0.6
		c-0.2,0.2-0.5,0.5-0.9,0.9c-0.4,0.4-0.7,0.6-1,0.8c-0.3,0.2-0.5,0.3-0.6,0.4c-0.2,0.1-0.3,0.1-0.4,0.1c-0.1,0-0.3-0.1-0.4-0.1
		l-7.7-4l-10.2,9.5l3.5,7.8c0.1,0.1,0.1,0.3,0.1,0.4c0,0.1,0,0.3-0.1,0.5c-0.1,0.2-0.2,0.4-0.4,0.6c-0.2,0.2-0.5,0.5-0.8,0.8
		c-0.4,0.3-0.7,0.6-0.9,0.8s-0.5,0.3-0.7,0.3c-0.2,0-0.3-0.1-0.5-0.3c-0.2-0.2-0.3-0.5-0.5-0.8l-13.1-30.6c-0.1-0.2-0.1-0.4-0.1-0.5
		c0-0.2,0.1-0.3,0.2-0.5c0.1-0.2,0.3-0.4,0.5-0.7c0.2-0.2,0.5-0.6,0.9-0.9c0.4-0.4,0.8-0.7,1-0.9c0.3-0.2,0.5-0.4,0.7-0.5
		c0.2-0.1,0.4-0.1,0.6-0.1c0.2,0,0.4,0.1,0.5,0.2L744.1,789.3z M714.7,779L714.7,779l7.2,16.2l8.6-8L714.7,779z"/>
	<path class="st5" d="M772.1,764.4c0.1,0.1,0.2,0.2,0.2,0.3c0,0.1,0,0.3-0.1,0.4c-0.1,0.2-0.2,0.4-0.4,0.6c-0.2,0.2-0.5,0.5-0.9,0.9
		c-0.3,0.3-0.6,0.5-0.8,0.7c-0.2,0.2-0.4,0.3-0.6,0.3c-0.2,0.1-0.4,0.1-0.5,0c-0.2,0-0.3-0.1-0.5-0.2l-7.7-3.7
		c-0.9-0.4-1.7-0.8-2.5-1s-1.6-0.4-2.3-0.5c-0.8,0-1.5,0.1-2.3,0.4c-0.7,0.3-1.5,0.8-2.2,1.5l-2.2,2l9.8,10.5
		c0.1,0.1,0.1,0.2,0.2,0.3c0,0.1,0,0.3-0.1,0.4c-0.1,0.2-0.2,0.3-0.4,0.6c-0.2,0.2-0.4,0.5-0.7,0.8c-0.3,0.3-0.6,0.5-0.8,0.7
		c-0.2,0.2-0.4,0.3-0.6,0.4c-0.2,0.1-0.3,0.1-0.4,0.1c-0.1,0-0.2-0.1-0.3-0.2l-21.2-22.8c-0.5-0.5-0.7-1-0.6-1.4
		c0.1-0.4,0.3-0.8,0.6-1.1l5.2-4.9c0.6-0.6,1.2-1,1.6-1.4c0.4-0.4,0.8-0.7,1.2-0.9c1.1-0.7,2.2-1.2,3.2-1.6c1.1-0.3,2.1-0.4,3.1-0.4
		c1,0.1,2,0.4,2.9,0.8c0.9,0.5,1.8,1.1,2.5,2c0.8,0.8,1.3,1.7,1.7,2.5c0.4,0.9,0.6,1.7,0.7,2.6c0,0.9,0,1.8-0.3,2.7
		s-0.6,1.8-1.1,2.8c0.6-0.2,1.1-0.3,1.7-0.4c0.6,0,1.2,0,1.8,0.1c0.6,0.1,1.3,0.3,2,0.6s1.5,0.6,2.3,1l7.3,3.4
		c0.6,0.3,1,0.5,1.2,0.6C771.8,764.2,772,764.3,772.1,764.4z M751,751.7c-0.9-1-1.9-1.6-2.9-1.8c-1.1-0.3-2.2-0.1-3.5,0.6
		c-0.4,0.2-0.8,0.5-1.3,0.8c-0.4,0.3-1,0.8-1.6,1.4l-2.8,2.6l7.7,8.3l3.2-3c0.9-0.8,1.5-1.6,1.9-2.4c0.4-0.8,0.7-1.6,0.8-2.3
		c0.1-0.8,0-1.5-0.3-2.2C752,753,751.6,752.3,751,751.7z"/>
	<path class="st5" d="M801.4,735.8c0.4,0.2,0.6,0.4,0.8,0.5c0.2,0.2,0.2,0.3,0.2,0.5s-0.1,0.4-0.3,0.6c-0.2,0.2-0.5,0.5-0.9,0.9
		c-0.4,0.4-0.7,0.6-1,0.8c-0.3,0.2-0.5,0.3-0.6,0.4c-0.2,0.1-0.3,0.1-0.4,0.1c-0.1,0-0.3-0.1-0.4-0.1l-7.7-4l-10.2,9.5l3.5,7.8
		c0.1,0.1,0.1,0.3,0.1,0.4c0,0.1,0,0.3-0.1,0.5c-0.1,0.2-0.2,0.4-0.4,0.6c-0.2,0.2-0.5,0.5-0.8,0.8c-0.4,0.3-0.7,0.6-0.9,0.8
		s-0.5,0.3-0.7,0.3c-0.2,0-0.3-0.1-0.5-0.3s-0.3-0.5-0.5-0.8l-13.1-30.6c-0.1-0.2-0.1-0.4-0.1-0.5s0.1-0.3,0.2-0.5s0.3-0.4,0.5-0.7
		c0.2-0.3,0.5-0.6,0.9-0.9c0.4-0.4,0.8-0.7,1-0.9c0.3-0.2,0.5-0.4,0.7-0.5c0.2-0.1,0.4-0.1,0.6-0.1c0.2,0,0.4,0.1,0.5,0.2
		L801.4,735.8z M772,725.5L772,725.5l7.2,16.2l8.6-8L772,725.5z"/>
</g>
<g>
	<path d="M398.5,729.3c0,0.4,0,0.8-0.1,1.1c-0.1,0.3-0.1,0.6-0.2,0.8c-0.1,0.2-0.2,0.4-0.4,0.5s-0.4,0.2-0.6,0.2h-24.4
		c-0.3,0-0.6,0-0.8-0.1c-0.2-0.1-0.4-0.2-0.6-0.4s-0.3-0.4-0.4-0.8c-0.1-0.3-0.1-0.8-0.1-1.3c0-0.5,0-0.9,0.1-1.2
		c0-0.3,0.1-0.6,0.2-0.9s0.3-0.5,0.4-0.8s0.4-0.5,0.7-0.8l8.8-9.1c2-2.1,3.7-4,4.9-5.6c1.2-1.7,2.2-3.2,2.9-4.5
		c0.7-1.4,1.1-2.6,1.3-3.7c0.2-1.1,0.3-2.2,0.3-3.1c0-1-0.2-1.9-0.5-2.8c-0.3-0.9-0.8-1.6-1.4-2.3c-0.6-0.7-1.4-1.2-2.3-1.6
		c-0.9-0.4-2-0.6-3.2-0.6c-1.4,0-2.7,0.2-3.9,0.6c-1.1,0.4-2.1,0.8-3,1.3c-0.9,0.5-1.6,0.9-2.2,1.3c-0.6,0.4-1,0.6-1.3,0.6
		c-0.2,0-0.3,0-0.4-0.1s-0.2-0.2-0.3-0.4c-0.1-0.2-0.1-0.5-0.2-0.8s-0.1-0.8-0.1-1.2c0-0.3,0-0.6,0-0.9c0-0.3,0.1-0.5,0.1-0.6
		c0.1-0.2,0.1-0.4,0.2-0.5c0.1-0.2,0.3-0.4,0.5-0.6s0.7-0.6,1.4-1c0.7-0.4,1.5-0.8,2.5-1.2s2.1-0.7,3.4-1c1.2-0.3,2.5-0.4,3.8-0.4
		c2.1,0,4,0.3,5.6,0.9s2.9,1.4,4,2.5c1.1,1,1.9,2.3,2.4,3.7c0.5,1.4,0.8,2.9,0.8,4.4c0,1.4-0.1,2.8-0.4,4.2
		c-0.3,1.4-0.8,2.9-1.6,4.5c-0.8,1.6-2,3.4-3.5,5.4c-1.5,2-3.6,4.3-6.1,6.9l-7,7.3h19.2c0.2,0,0.4,0.1,0.5,0.2s0.3,0.3,0.4,0.5
		c0.1,0.2,0.2,0.5,0.3,0.8C398.5,728.6,398.5,728.9,398.5,729.3z"/>
	<path d="M435.5,709.7c0,3.4-0.3,6.5-0.8,9.3c-0.5,2.8-1.4,5.2-2.7,7.2c-1.2,2-2.9,3.6-4.9,4.7c-2,1.1-4.5,1.7-7.4,1.7
		c-2.8,0-5.1-0.5-7-1.5c-1.9-1-3.4-2.4-4.6-4.4s-2-4.3-2.5-7.1c-0.5-2.8-0.7-6-0.7-9.7c0-3.4,0.3-6.5,0.8-9.3s1.4-5.2,2.7-7.2
		c1.2-2,2.8-3.6,4.9-4.7c2-1.1,4.5-1.7,7.4-1.7c2.8,0,5.2,0.5,7.1,1.5c1.9,1,3.4,2.5,4.6,4.4c1.2,1.9,2,4.3,2.5,7.1
		C435.3,702.8,435.5,706,435.5,709.7z M429.5,710.1c0-2.2-0.1-4.2-0.2-5.9c-0.2-1.8-0.4-3.3-0.7-4.6s-0.7-2.5-1.2-3.5
		c-0.5-1-1.1-1.8-1.8-2.4c-0.7-0.6-1.5-1.1-2.3-1.4c-0.9-0.3-1.9-0.4-3-0.4c-1.9,0-3.5,0.5-4.7,1.4c-1.2,0.9-2.2,2.2-2.9,3.8
		c-0.7,1.6-1.2,3.5-1.4,5.6c-0.3,2.1-0.4,4.4-0.4,6.9c0,3.3,0.2,6.1,0.5,8.4c0.3,2.3,0.9,4.2,1.6,5.7c0.7,1.5,1.7,2.5,2.8,3.2
		c1.2,0.7,2.5,1,4.2,1c1.3,0,2.4-0.2,3.4-0.6c1-0.4,1.8-1,2.5-1.8c0.7-0.8,1.3-1.7,1.7-2.8c0.5-1.1,0.8-2.3,1.1-3.6
		c0.3-1.3,0.5-2.7,0.6-4.2C429.4,713.3,429.5,711.7,429.5,710.1z"/>
	<path d="M469.6,729.5c0,0.4,0,0.8-0.1,1.1s-0.2,0.5-0.3,0.7c-0.1,0.2-0.2,0.3-0.4,0.4c-0.1,0.1-0.3,0.1-0.5,0.1h-23.1
		c-0.2,0-0.3,0-0.4-0.1c-0.1-0.1-0.3-0.2-0.4-0.4c-0.1-0.2-0.2-0.4-0.3-0.7s-0.1-0.7-0.1-1.1c0-0.4,0-0.8,0.1-1.1
		c0.1-0.3,0.2-0.5,0.3-0.7s0.2-0.3,0.4-0.4c0.1-0.1,0.3-0.2,0.5-0.2h9.2v-33.6l-8.5,5.1c-0.4,0.2-0.8,0.4-1,0.4
		c-0.3,0-0.5,0-0.6-0.2s-0.3-0.4-0.3-0.7c-0.1-0.3-0.1-0.8-0.1-1.3c0-0.4,0-0.7,0.1-1c0-0.3,0.1-0.5,0.2-0.7
		c0.1-0.2,0.2-0.3,0.3-0.5c0.1-0.1,0.3-0.3,0.5-0.4l10.2-6.5c0.1-0.1,0.2-0.1,0.3-0.2c0.1,0,0.3-0.1,0.5-0.1c0.2,0,0.4-0.1,0.7-0.1
		s0.6,0,1,0c0.5,0,1,0,1.4,0.1c0.4,0,0.6,0.1,0.9,0.2s0.3,0.2,0.4,0.3s0.1,0.3,0.1,0.4v38.9h8c0.2,0,0.4,0.1,0.5,0.2
		c0.2,0.1,0.3,0.3,0.4,0.4s0.2,0.4,0.2,0.7C469.6,728.8,469.6,729.1,469.6,729.5z"/>
	<path d="M506.9,719.3c0,0.8-0.1,1.3-0.3,1.8c-0.2,0.4-0.5,0.6-1,0.6h-5v9.3c0,0.2,0,0.3-0.1,0.5c-0.1,0.1-0.3,0.2-0.5,0.3
		c-0.2,0.1-0.5,0.2-0.9,0.2c-0.4,0-0.9,0.1-1.4,0.1c-0.6,0-1,0-1.4-0.1c-0.4,0-0.7-0.1-0.9-0.2c-0.2-0.1-0.4-0.2-0.5-0.3
		c-0.1-0.1-0.1-0.3-0.1-0.5v-9.3h-18.1c-0.3,0-0.5,0-0.7-0.1s-0.3-0.2-0.5-0.4c-0.1-0.2-0.2-0.4-0.3-0.8s-0.1-0.8-0.1-1.3
		c0-0.4,0-0.8,0-1.2c0-0.3,0.1-0.7,0.1-0.9c0.1-0.3,0.2-0.6,0.3-0.8c0.1-0.3,0.2-0.5,0.4-0.8l15.8-26.9c0.1-0.2,0.3-0.3,0.5-0.5
		c0.2-0.1,0.5-0.2,0.9-0.3c0.3-0.1,0.8-0.2,1.3-0.2c0.5,0,1.1-0.1,1.8-0.1c0.8,0,1.4,0,2,0.1s1,0.1,1.4,0.2c0.3,0.1,0.6,0.2,0.8,0.4
		c0.2,0.1,0.3,0.3,0.3,0.5v28.2h5c0.4,0,0.7,0.2,0.9,0.6C506.8,717.9,506.9,718.5,506.9,719.3z M494.7,692.6L494.7,692.6l-14.3,24.3
		h14.3V692.6z"/>
</g>
<g>
	<path d="M566.7,704.9c0.3,0.1,0.5,0.4,0.4,0.8s-0.3,1-0.8,1.9c-0.5,0.9-1,1.5-1.3,1.7s-0.6,0.2-0.9,0l-7.3-5.3l1,9
		c0.1,0.3-0.1,0.6-0.4,0.8c-0.4,0.2-1.1,0.3-2.1,0.3c-1,0-1.8-0.1-2.1-0.3c-0.4-0.2-0.5-0.4-0.4-0.8l1-9l-7.2,5.3
		c-0.3,0.2-0.6,0.2-0.9,0s-0.8-0.8-1.3-1.7c-0.5-0.9-0.8-1.5-0.8-1.9s0.1-0.7,0.5-0.8l8.2-3.7l-8.2-3.6c-0.3-0.2-0.5-0.4-0.5-0.8
		c0-0.4,0.3-1,0.8-1.9c0.5-0.9,1-1.4,1.3-1.6s0.6-0.2,0.9,0l7.2,5.3l-1-8.9c-0.1-0.4,0.1-0.6,0.4-0.8c0.4-0.2,1.1-0.3,2.1-0.3
		c1,0,1.8,0.1,2.1,0.3c0.4,0.2,0.5,0.5,0.4,0.8l-1,8.9l7.3-5.3c0.3-0.2,0.6-0.2,0.9,0s0.8,0.8,1.3,1.7c0.5,0.9,0.8,1.5,0.8,1.9
		c0,0.4-0.1,0.7-0.4,0.8l-8.2,3.6L566.7,704.9z"/>
</g>
<g>
	<path d="M329.7,701.6c0.3,0.1,0.5,0.4,0.4,0.8c0,0.4-0.3,1-0.8,1.9c-0.5,0.9-1,1.5-1.3,1.7c-0.3,0.2-0.6,0.2-0.9,0l-7.3-5.3l1,9
		c0.1,0.3-0.1,0.6-0.4,0.8c-0.4,0.2-1.1,0.3-2.1,0.3s-1.8-0.1-2.1-0.3s-0.5-0.4-0.4-0.8l1-9l-7.2,5.3c-0.3,0.2-0.6,0.2-0.9,0
		s-0.8-0.8-1.3-1.7c-0.5-0.9-0.8-1.5-0.8-1.9c0-0.4,0.1-0.7,0.5-0.8l8.2-3.7l-8.2-3.6c-0.3-0.2-0.5-0.4-0.5-0.8c0-0.4,0.3-1,0.8-1.9
		c0.5-0.9,1-1.4,1.3-1.6s0.6-0.2,0.9,0l7.2,5.3l-1-8.9c-0.1-0.4,0.1-0.6,0.4-0.8c0.4-0.2,1.1-0.3,2.1-0.3s1.8,0.1,2.1,0.3
		c0.4,0.2,0.5,0.5,0.4,0.8l-1,8.9l7.3-5.3c0.3-0.2,0.6-0.2,0.9,0c0.3,0.2,0.8,0.8,1.3,1.7c0.5,0.9,0.8,1.5,0.8,1.9
		c0,0.4-0.1,0.7-0.4,0.8l-8.2,3.6L329.7,701.6z"/>
</g>
<text transform="matrix(0.9592 -0.2829 0.2829 0.9592 309.9085 494.7878)" class="st5 st16 st17">M</text>
<text transform="matrix(0.9592 -0.2829 0.2829 0.9592 390.5278 471.6795)" class="st5 st16 st17">o</text>
<g>
	<path class="st5" d="M478.1,464.4c-0.2,0.5-0.4,0.9-0.6,1.2c-0.2,0.3-0.4,0.6-0.6,0.9c-0.2,0.2-0.4,0.4-0.6,0.6
		c-0.2,0.2-0.5,0.3-1,0.5c-0.4,0.2-1.2,0.4-2.5,0.6c-1.2,0.2-2.7,0.3-4.3,0.3c-1.7,0-3.5-0.2-5.5-0.6c-2-0.4-4.1-1-6.3-2
		c-3.8-1.6-6.9-3.7-9.4-6.2c-2.5-2.5-4.3-5.5-5.4-8.8c-1.1-3.4-1.4-7.1-1.1-11.2s1.6-8.5,3.6-13.1c2-4.8,4.5-8.8,7.3-12
		c2.8-3.2,5.9-5.7,9.3-7.3c3.3-1.7,6.9-2.5,10.6-2.5c3.7,0,7.4,0.7,11.2,2.4c1.7,0.7,3.2,1.6,4.7,2.6c1.4,1,2.7,2,3.9,3.1
		s2.1,2.1,2.9,3.2s1.3,1.9,1.5,2.5c0.2,0.6,0.4,1,0.4,1.3c0,0.3,0,0.5,0,0.9c0,0.3-0.1,0.7-0.3,1.1c-0.1,0.4-0.3,0.9-0.5,1.4
		c-0.3,0.6-0.5,1.1-0.7,1.5c-0.2,0.4-0.5,0.7-0.7,0.9c-0.2,0.2-0.5,0.4-0.7,0.4c-0.2,0.1-0.5,0-0.7-0.1c-0.4-0.2-0.9-0.7-1.4-1.6
		c-0.5-0.9-1.2-2-2.1-3.2c-0.9-1.2-2-2.5-3.5-3.8c-1.4-1.3-3.4-2.5-5.7-3.5c-2.6-1.1-5.1-1.6-7.7-1.5c-2.6,0.1-5,0.9-7.4,2.2
		c-2.4,1.4-4.6,3.3-6.6,5.8c-2.1,2.5-3.9,5.6-5.4,9.3c-1.6,3.7-2.6,7.1-3,10.2c-0.4,3.2-0.3,6,0.4,8.5c0.7,2.5,1.9,4.7,3.6,6.6
		c1.7,1.9,4,3.4,6.7,4.6c2.3,1,4.4,1.6,6.4,1.7c2,0.2,3.7,0.2,5.2,0c1.5-0.2,2.8-0.4,3.8-0.6c1-0.2,1.8-0.3,2.2-0.1
		c0.2,0.1,0.4,0.2,0.5,0.4s0.2,0.4,0.1,0.7c0,0.3-0.1,0.7-0.2,1.1C478.6,463.1,478.3,463.7,478.1,464.4z"/>
</g>
<text transform="matrix(0.9472 0.3206 -0.3206 0.9472 481.2312 471.6802)" class="st5 st16 st17">U</text>
<path class="st18" d="M361.4,970.4c0,0,98-21.5,154,0l3.1-53.7c0,0-113.6-18.7-157.1,0V970.4z"/>
<g>
	<path class="st5" d="M443.4,950.1c0,0.3-0.1,0.6-0.2,0.9c-0.1,0.2-0.3,0.4-0.5,0.6s-0.4,0.3-0.6,0.3c-0.2,0.1-0.5,0.1-0.7,0.1
		l-1.5,0c-0.5,0-0.9,0-1.2-0.1c-0.4-0.1-0.7-0.3-1-0.5c-0.3-0.2-0.6-0.6-0.9-1c-0.3-0.4-0.7-1-1-1.7l-10.4-19.1
		c-0.5-1-1.1-2-1.6-3.1c-0.6-1.1-1.1-2.1-1.5-3.2l-0.1,0c0,1.2,0.1,2.5,0.1,3.8c0,1.3,0,2.6,0,3.9l0.1,20.3c0,0.1,0,0.2-0.1,0.4
		c-0.1,0.1-0.2,0.2-0.4,0.3c-0.2,0.1-0.4,0.1-0.7,0.2c-0.3,0-0.6,0.1-1.1,0.1c-0.4,0-0.8,0-1.1-0.1c-0.3,0-0.5-0.1-0.7-0.2
		c-0.2-0.1-0.3-0.1-0.4-0.3c-0.1-0.1-0.1-0.2-0.1-0.3l-0.2-31c0-0.7,0.2-1.2,0.6-1.5c0.4-0.3,0.8-0.4,1.3-0.4l2.2,0
		c0.5,0,1,0,1.3,0.1c0.3,0.1,0.7,0.2,0.9,0.4c0.3,0.2,0.5,0.5,0.8,0.8c0.3,0.4,0.5,0.8,0.8,1.3l8,14.7c0.5,0.9,1,1.8,1.4,2.6
		c0.5,0.9,0.9,1.7,1.3,2.5c0.4,0.8,0.8,1.6,1.3,2.5c0.4,0.8,0.8,1.6,1.2,2.4h0c0-1.4-0.1-2.8-0.1-4.3c0-1.5,0-2.9,0-4.3l-0.1-18.3
		c0-0.1,0-0.2,0.1-0.3s0.2-0.2,0.4-0.3s0.4-0.1,0.7-0.2c0.3,0,0.7-0.1,1.1-0.1c0.4,0,0.8,0,1,0c0.3,0,0.5,0.1,0.7,0.2
		s0.3,0.2,0.4,0.3c0.1,0.1,0.1,0.2,0.1,0.3L443.4,950.1z"/>
	<path class="st5" d="M466.2,951.2c0,0.1,0,0.3-0.1,0.4c-0.1,0.1-0.2,0.2-0.4,0.2c-0.2,0.1-0.4,0.1-0.7,0.2c-0.3,0-0.6,0.1-1.1,0.1
		c-0.4,0-0.8,0-1.1-0.1c-0.3,0-0.5-0.1-0.7-0.2c-0.2-0.1-0.3-0.1-0.4-0.2s-0.1-0.2-0.1-0.4l-0.2-32.3c0-0.1,0-0.3,0.1-0.4
		c0.1-0.1,0.2-0.2,0.4-0.2c0.2-0.1,0.4-0.1,0.7-0.2c0.3,0,0.6-0.1,1-0.1c0.4,0,0.8,0,1.1,0.1c0.3,0,0.5,0.1,0.7,0.2
		c0.2,0.1,0.3,0.1,0.4,0.2c0.1,0.1,0.1,0.2,0.1,0.4L466.2,951.2z"/>
</g>
</svg>
